<?xml version="1.0" encoding="UTF-8" standalone="no"?>
<!-- Created with Inkscape (http://www.inkscape.org/) -->

<svg
   xmlns:dc="http://purl.org/dc/elements/1.1/"
   xmlns:cc="http://creativecommons.org/ns#"
   xmlns:rdf="http://www.w3.org/1999/02/22-rdf-syntax-ns#"
   xmlns:svg="http://www.w3.org/2000/svg"
   xmlns="http://www.w3.org/2000/svg"
   xmlns:xlink="http://www.w3.org/1999/xlink"
   xmlns:sodipodi="http://sodipodi.sourceforge.net/DTD/sodipodi-0.dtd"
   xmlns:inkscape="http://www.inkscape.org/namespaces/inkscape"
   version="1.0"
   width="1000"
   height="320"
   id="svg2619"
   inkscape:version="0.91 r13725"
   sodipodi:docname="Linux_Mint_Official_Logo.svg">
  <metadata
     id="metadata3514">
    <rdf:RDF>
      <cc:Work
         rdf:about="">
        <dc:format>image/svg+xml</dc:format>
        <dc:type
           rdf:resource="http://purl.org/dc/dcmitype/StillImage" />
      </cc:Work>
    </rdf:RDF>
  </metadata>
  <sodipodi:namedview
     pagecolor="#ffffff"
     bordercolor="#666666"
     borderopacity="1"
     objecttolerance="10"
     gridtolerance="10"
     guidetolerance="10"
     inkscape:pageopacity="0"
     inkscape:pageshadow="2"
     inkscape:window-width="1920"
     inkscape:window-height="1151"
     id="namedview3512"
     showgrid="false"
     inkscape:zoom="1.779"
     inkscape:cx="362.56324"
     inkscape:cy="160"
     inkscape:window-x="0"
     inkscape:window-y="0"
     inkscape:window-maximized="1"
     inkscape:current-layer="svg2619" />
  <title
     id="title3079">Linux Mint Official Logo</title>
  <defs
     id="defs2621">
    <linearGradient
       id="linearGradient3431">
      <stop
         id="stop3433"
         style="stop-color:#3d3d3d;stop-opacity:1"
         offset="0" />
      <stop
         id="stop3435"
         style="stop-color:#000000;stop-opacity:0.11400651"
         offset="1" />
    </linearGradient>
    <linearGradient
       id="linearGradient3312">
      <stop
         id="stop3314"
         style="stop-color:#c7f994;stop-opacity:1"
         offset="0" />
      <stop
         id="stop3316"
         style="stop-color:#87cf3e;stop-opacity:1"
         offset="1" />
    </linearGradient>
    <filter
       color-interpolation-filters="sRGB"
       id="filter3291">
      <feGaussianBlur
         id="feGaussianBlur3293"
         stdDeviation="0.400625" />
    </filter>
    <filter
       color-interpolation-filters="sRGB"
       id="filter3546">
      <feGaussianBlur
         id="feGaussianBlur3548"
         stdDeviation="0.15992437" />
    </filter>
    <linearGradient
       x1="70.491508"
       y1="416.38858"
       x2="113.64215"
       y2="375.87961"
       id="linearGradient4136"
       xlink:href="#linearGradient3431"
       gradientUnits="userSpaceOnUse"
       gradientTransform="translate(0,80)"
       spreadMethod="pad" />
    <filter
       color-interpolation-filters="sRGB"
       id="filter3469">
      <feGaussianBlur
         id="feGaussianBlur3471"
         stdDeviation="2.7119931" />
    </filter>
    <linearGradient
       x1="61.42857"
       y1="362.14285"
       x2="116.42857"
       y2="408.57144"
       id="linearGradient3538"
       xlink:href="#linearGradient3312"
       gradientUnits="userSpaceOnUse"
       gradientTransform="matrix(2.684162,0,0,2.684162,-89.865856,-904.32339)" />
    <filter
       color-interpolation-filters="sRGB"
       id="filter3573">
      <feGaussianBlur
         id="feGaussianBlur3575"
         stdDeviation="1.6284922" />
    </filter>
    <filter
       color-interpolation-filters="sRGB"
       id="filter3965">
      <feGaussianBlur
         id="feGaussianBlur3967"
         stdDeviation="2.4743396" />
    </filter>
    <filter
       color-interpolation-filters="sRGB"
       id="filter4006">
      <feGaussianBlur
         id="feGaussianBlur4008"
         stdDeviation="1.6495597" />
    </filter>
    <filter
       color-interpolation-filters="sRGB"
       id="filter4135">
      <feGaussianBlur
         id="feGaussianBlur4137"
         stdDeviation="0.74662361" />
    </filter>
  </defs>
  <text
     sodipodi:linespacing="100%"
     style="font-style:normal;font-variant:normal;font-weight:normal;font-stretch:normal;font-size:19.75634766px;line-height:100%;font-family:Skia;text-align:start;writing-mode:lr-tb;text-anchor:start;fill:#ffffff;fill-opacity:1;stroke:none"
     xml:space="preserve"
     id="text2972"
     transform="scale(1.1483401,0.87082218)"
     y="977.61572"
     x="326.29156"><tspan
       id="tspan2976"
       y="977.61572"
       x="326.29156">freedom for the masses</tspan></text>
  <g
     transform="matrix(2.4672465,0,0,2.4672465,-552.26051,-207.39927)"
     id="g3633"
     style="opacity:0.51327682;fill:#000000;filter:url(#filter3469)">
    <g
       transform="translate(-10,-356)"
       id="g3635"
       style="fill:#000000">
      <g
         transform="translate(126.06579,-105.54595)"
         id="g3639"
         style="fill:#000000" />
    </g>
    <polygon
       points="64.168,23.48 64.168,23.48 66.376,23.48 66.376,40.96 64.168,40.96 "
       transform="matrix(2.3979656,0,0,2.3979656,246.72565,83.158)"
       id="polygon3645"
       style="display:inline;fill:#000000;fill-rule:evenodd" />
    <path
       d="m 432.59676,181.37867 -5.29471,0 0,-31.7107 c 0,-1.43877 -0.51796,-2.68572 -1.55389,-3.72164 -1.03591,-1.03592 -2.28286,-1.55148 -3.72163,-1.55148 -1.45797,0 -2.70491,0.51795 -3.74083,1.55148 -1.03592,1.03592 -1.55389,2.28287 -1.55389,3.72164 l 0,31.7107 -5.27552,0 0,-31.7107 c 0,-2.89674 1.01674,-5.39063 3.08858,-7.46006 2.07184,-2.07185 4.56573,-3.11017 7.48166,-3.11017 2.89674,0 5.39062,1.03832 7.46246,3.11017 2.07184,2.06943 3.10777,4.56332 3.10777,7.46006 l 0,31.7107 0,0 z"
       id="path3647"
       style="display:inline;fill:#000000;fill-rule:evenodd"
       inkscape:connector-curvature="0" />
    <path
       d="m 457.68907,170.80604 c 0,2.91592 -1.03592,5.39063 -3.08858,7.46247 -2.07184,2.06945 -4.56573,3.10776 -7.48165,3.10776 -2.89674,0 -5.39063,-1.03831 -7.46247,-3.10776 -2.07184,-2.07184 -3.10776,-4.54655 -3.10776,-7.46247 l 0,-31.7083 5.2947,0 0,31.7107 c 0,1.45796 0.51796,2.68572 1.55388,3.72164 1.03592,1.03832 2.28287,1.55389 3.72165,1.55389 1.45796,0 2.7049,-0.51797 3.74082,-1.55389 1.03592,-1.03592 1.55388,-2.26128 1.55388,-3.72164 l 0,-31.7107 5.27553,0 0,31.7083 0,0 z"
       id="path3649"
       style="display:inline;fill:#000000;fill-rule:evenodd"
       inkscape:connector-curvature="0" />
    <polygon
       points="98.448,23.328 95.248,32.144 98.448,40.96 98.448,40.96 96.024,40.96 94.04,35.488 92.056,40.96 89.624,40.96 92.824,32.144 89.624,23.328 92.056,23.328 94.04,28.8 96.024,23.328 "
       transform="matrix(2.3979656,0,0,2.3979656,246.72565,83.158)"
       id="polygon3651"
       style="display:inline;fill:#000000;fill-rule:evenodd" />
    <path
       d="m 403.37407,135.93243 c -1.41959,0 -2.68572,-1.09348 -2.68572,-2.57062 l 0,-0.63306 0,0 0,-7.7886 -0.80572,0 0,-2.64735 2.6916,0.0192 0.61388,0 c 1.41959,0 2.68571,1.07429 2.68571,2.55144 l 0,11.06901 -2.49975,0 0,0 0,0 z"
       id="path3653"
       style="display:inline;fill:#000000;fill-rule:evenodd"
       inkscape:connector-curvature="0" />
    <g
       transform="translate(-10,-356)"
       id="g3655"
       style="fill:#000000">
      <path
         d="m 558.31297,537.37867 -6.8294,0 0,-59.35444 c 0,-0.40286 -0.13428,-1.03592 -0.42204,-1.86082 -0.55633,-1.59225 -1.55388,-2.80083 -3.01185,-3.62573 -1.17021,-0.63306 -2.5898,-0.94 -4.2396,-0.94 -0.0767,0 -0.21102,0.0384 -0.42204,0.0959 -0.21102,0.0768 -0.34531,0.11511 -0.42205,0.11511 -0.40285,0 -1.03591,0.24939 -1.86082,0.72898 -1.38122,0.74816 -2.3596,1.86082 -2.91592,3.31879 -0.40286,0.90163 -0.61388,1.63061 -0.61388,2.16776 l 0,59.35444 -6.82941,0 0,-59.35444 c 0,-0.0576 -0.0384,-0.36449 -0.1151,-0.92082 -0.21102,-0.84409 -0.5947,-1.66899 -1.15102,-2.49389 -1.24694,-1.72654 -2.82001,-2.74327 -4.77675,-3.01184 0.21102,0 -0.26857,0 -1.43878,0 -0.0767,0 -0.21102,0 -0.42204,0 -0.21102,0 -0.34531,0 -0.40286,0 -0.3453,0 -0.97837,0.24939 -1.88,0.72898 -2.01429,1.03592 -3.14613,2.66654 -3.43389,4.89185 -0.0576,0.0767 -0.0959,0.17265 -0.0959,0.30694 l 0,59.85322 -7.05961,0 0,-59.54628 c 0,-1.38123 0.30694,-2.83919 0.92082,-4.35471 0.28775,-0.63306 0.67143,-1.34286 1.15102,-2.18694 0.95919,-1.72654 2.43633,-3.20368 4.41226,-4.41226 1.95674,-1.20857 4.02858,-1.88001 6.17716,-2.01429 0.53715,-0.0767 1.3045,-0.1151 2.28286,-0.0959 0.0575,-0.0192 0.23021,0.0192 0.51796,0.0959 0.26857,0.0575 0.44123,0.0959 0.51796,0.0959 0.61388,0 1.78409,0.34531 3.52981,1.03592 0.26857,0.0767 0.57551,0.21102 0.92082,0.42204 1.18939,0.69062 2.43633,1.72654 3.74083,3.10777 1.11265,-1.17021 2.07184,-2.03348 2.91592,-2.58981 2.20613,-1.45796 5.08369,-2.18694 8.59431,-2.16776 0.0767,-0.0192 0.24939,0.0192 0.51796,0.0959 0.28775,0.0575 0.46041,0.0959 0.53714,0.0959 0.61388,0 1.72654,0.30694 3.31879,0.94001 3.66409,1.45795 6.11961,3.97103 7.36655,7.57756 0.61388,1.86083 0.92081,3.31878 0.92081,4.35471 l 0,59.54628 0,0 0,0 z"
         id="path3657"
         style="display:inline;fill:#000000;fill-rule:evenodd"
         inkscape:connector-curvature="0" />
      <polygon
         points="128.488,23.656 128.488,23.656 131.432,23.656 131.432,40.96 128.488,40.96 "
         transform="matrix(2.3979656,0,0,2.3979656,256.72565,439.158)"
         id="polygon3659"
         style="display:inline;fill:#000000;fill-rule:evenodd" />
      <path
         d="m 605.81188,537.37867 -6.82941,0 0,-28.12334 c 0,-0.13429 -0.0408,-0.47959 -0.1151,-1.03592 -0.55632,-2.62817 -2.16776,-4.31634 -4.87266,-5.08369 -0.42204,-0.13429 -1.24935,-0.21102 -2.49389,-0.21102 -0.0767,0 -0.2302,0.0384 -0.46041,0.1151 -0.24939,0.0767 -0.36209,0.0959 -0.36209,0.0959 -0.34771,0 -1.01913,0.24939 -1.97593,0.72899 -1.88,0.90163 -2.97347,2.49388 -3.31878,4.77674 -0.0767,0.0767 -0.1175,0.17265 -0.1175,0.30694 l 0,28.43028 -7.05721,0 0,-41.4944 7.05721,0 c -0.0552,0.63546 -0.0552,1.17021 0,1.6498 2.37878,-1.09346 4.91343,-1.6498 7.61834,-1.6498 0.0743,0 0.26617,0.0408 0.63306,0.11751 0.3477,0.0552 0.55633,0.0935 0.61388,0.0935 1.45796,0 3.24445,0.65224 5.31389,1.97592 1.74812,1.03832 3.14853,2.41715 4.18206,4.14608 1.45795,2.28287 2.18694,4.50817 2.18694,6.63757 l 0,28.5238 -0.002,0 z"
         id="path3661"
         style="display:inline;fill:#000000;fill-rule:evenodd"
         inkscape:connector-curvature="0" />
      <path
         d="m 626.35765,502.9247 -6.84859,0 0,21.38986 c 0.0767,0.19183 0.15347,0.51795 0.21102,0.92081 0.49878,2.22532 1.84404,3.74323 4.04777,4.56573 0.47959,0.13428 0.74816,0.21102 0.8249,0.21102 0.0767,0 0.0959,0.0384 0.0959,0.0959 0,0 0.0384,0 0.1151,0 0.0767,0 0.21103,0.0384 0.42205,0.1151 0.19184,0.0767 0.34771,0.0959 0.40286,0.0959 0.0767,0 0.19183,0 0.36448,0 0.17266,0 0.28776,0 0.3645,0 l 0,7.05961 c -2.84159,-0.13668 -5.37144,-0.86327 -7.57757,-2.16776 -1.66898,-0.97837 -3.05022,-2.3596 -4.14608,-4.16287 -1.45557,-2.34041 -2.18455,-4.64246 -2.18455,-6.84619 l 0,-49.07437 7.05721,0 0,20.64169 6.84859,0 0,7.15553 0.002,0 0,0 z"
         id="path3663"
         style="display:inline;fill:#000000;fill-rule:evenodd"
         inkscape:connector-curvature="0" />
      <path
         d="m 567.31014,491.56793 c -1.41959,0 -2.7049,-1.09347 -2.7049,-2.57061 l 0,-0.63307 0,0 0,-7.78859 -0.78653,0 0,-2.64736 4.1245,0.0192 0.61388,0 c 1.43877,0 2.7049,1.07429 2.7049,2.55144 l 0,11.069 -3.95185,0 0,0 0,0 z"
         id="path3665"
         style="display:inline;fill:#000000;fill-rule:evenodd"
         inkscape:connector-curvature="0" />
    </g>
    <path
       d="m 379.12524,108.67277 0,62 c 0,2.91592 1.02191,5.39691 3.09375,7.46875 1.94604,1.94379 4.27802,2.97534 6.96875,3.09375 l 0,0.0312 0.53125,0 5.375,0 0,-5.3125 -5.375,0 c -1.72641,0 -2.71408,-0.49039 -3.75,-1.46875 -1.03591,-0.95679 -1.5625,-2.1067 -1.5625,-3.46875 l 0,-62.34375 -5.28125,0 z"
       id="path3667"
       style="display:inline;fill:#000000;fill-rule:evenodd"
       inkscape:connector-curvature="0" />
    <path
       d="m 383.875,187.15625 c -0.75965,1e-5 -1.41616,0.078 -1.96875,0.28125 -0.53543,0.19692 -0.99895,0.48081 -1.34375,0.8125 -0.38142,0.37107 -0.65338,0.77076 -0.8125,1.21875 -0.1549,0.42983 -0.21879,0.91327 -0.21875,1.4375 l 0,0.0625 -1.4375,0 -0.34375,0 0,0.34375 0,0.96875 0,0.34375 0.34375,0 1.4375,0 c -7.7e-4,1.78396 -0.02,3.42776 -0.0312,4.8125 -0.0121,1.47936 -10e-6,2.23848 0,2.34375 l 0,0.34375 0.34375,0 1.4375,0 0.34375,0 0,-0.34375 c 0,-0.10507 -0.0192,-0.9224 -0.0312,-2.46875 -0.006,-1.44534 4e-4,-3.01929 0,-4.6875 l 2.71875,0 0.375,0 0,-0.34375 0,-0.96875 0,-0.34375 -0.375,0 -2.71875,0 0,-0.0312 c 0,-0.34201 0.0366,-0.64659 0.125,-0.90625 0.0931,-0.26309 0.2294,-0.43596 0.375,-0.5625 0.22298,-0.19666 0.4727,-0.32549 0.75,-0.40625 0.27354,-0.0796 0.70222,-0.15624 1.25,-0.15625 0.0415,1e-5 0.10061,0 0.15625,0 l 0,0.0625 0.46875,-0.0625 0.15625,0 0,-0.0312 0.0625,0 -0.0625,-0.34375 0,-0.3125 -0.0312,0 -0.125,-0.78125 -0.0625,-0.28125 -0.28125,0 c -0.036,1e-5 -0.11011,1e-5 -0.21875,0 -0.10257,1e-5 -0.20279,1e-5 -0.28125,0 z m 45.34375,0 c -0.75964,1e-5 -1.41615,0.078 -1.96875,0.28125 -0.53543,0.19692 -0.99894,0.48082 -1.34375,0.8125 -0.3814,0.37107 -0.65336,0.77076 -0.8125,1.21875 -0.15489,0.42983 -0.21875,0.91329 -0.21875,1.4375 l 0,0.0625 -1.4375,0 -0.34375,0 0,0.34375 0,0.96875 0,0.34375 0.34375,0 1.4375,0 c -7.5e-4,1.78395 -0.02,3.42776 -0.0312,4.8125 -0.0121,1.47936 -0.0312,2.23882 -0.0312,2.34375 l 0,0.34375 0.375,0 1.40625,0 0.375,0 0,-0.34375 c 0,-0.10506 -0.0192,-0.9224 -0.0312,-2.46875 -0.006,-1.44534 3.9e-4,-3.01929 0,-4.6875 l 2.71875,0 0.34375,0 0,-0.34375 0,-0.96875 0,-0.34375 -0.34375,0 -2.71875,0 0,-0.0312 c 0,-0.342 0.0366,-0.64658 0.125,-0.90625 0.0931,-0.26308 0.22939,-0.43596 0.375,-0.5625 0.22299,-0.19667 0.44145,-0.3255 0.71875,-0.40625 0.27357,-0.0796 0.70222,-0.15624 1.25,-0.15625 0.0415,1e-5 0.10062,0 0.15625,0 l 0,0.0625 0.46875,-0.0625 0.1875,0 0,-0.0312 0.0625,0 -0.0625,-0.34375 0,-0.3125 -0.0625,0 -0.125,-0.78125 -0.0312,-0.28125 -0.3125,0 c -0.036,1e-5 -0.11013,1e-5 -0.21875,0 -0.10256,1e-5 -0.17155,1e-5 -0.25,0 z m 33.4375,0 0,0.34375 0.0312,3.5625 c -0.55222,0.0171 -1.12037,0.0248 -1.6875,0.125 -0.68693,0.11553 -1.29971,0.29446 -1.84375,0.53125 -0.9234,0.38879 -1.64963,0.93809 -2.15625,1.65625 -0.50618,0.71147 -0.75,1.55635 -0.75,2.46875 0,0.79263 0.23231,1.54071 0.6875,2.1875 0.45822,0.65116 1.12106,1.15393 1.96875,1.53125 0.64414,0.28622 1.32121,0.4686 2,0.5625 0.67506,0.0992 1.56846,0.15625 2.71875,0.15625 0.12036,0 0.27363,0.006 0.46875,0 0.19312,0 0.30764,-1e-5 0.34375,0 l 0.34375,0 0,-0.0312 0,-0.34375 c -8.5e-4,-0.0969 9.7e-4,-0.24164 0,-0.34375 -0.006,-0.62207 -0.0209,-1.2783 -0.0312,-2.09375 -0.006,-0.95366 -2e-5,-2.01024 0,-3.1875 -10e-6,-1.48953 -0.0121,-2.9871 0,-4.4375 0.0121,-1.45146 0.0312,-2.21959 0.0312,-2.34375 l 0,-0.34375 -0.34375,0 -1.4375,0 -0.34375,0 z m 93.9375,0 0.0312,0.34375 c 0.0181,1.26027 -10e-6,2.42361 0,3.4375 0.006,1.00995 0.0313,1.83678 0.0312,2.5 0,1.03135 -0.0192,2.33821 -0.0312,3.90625 -0.003,0.78131 0.003,1.37454 0,1.78125 -0.002,0.20336 10e-4,0.35985 0,0.46875 -10e-4,0.1089 -0.004,0.19746 0,0.15625 l -0.0625,0.375 0.40625,0 1.0625,0 0.375,0 0.34375,0 0,-0.34375 c 0,-0.0145 3.6e-4,-0.29585 0,-0.34375 -0.002,-0.23086 -0.0213,-0.60677 -0.0312,-1.65625 -0.0121,-1.26569 2e-5,-2.74689 0,-4.4375 0,-0.77503 -0.006,-1.71657 0,-2.84375 0.006,-1.13242 0.0192,-2.14164 0.0312,-3 l 0,-0.34375 -0.34375,0 -1.4375,0 -0.375,0 z m -165.21875,3.5625 -0.34375,0.0625 c -0.4264,0.10159 -0.95233,0.29663 -1.625,0.5625 -0.51337,0.2029 -1.04004,0.46091 -1.5625,0.71875 l 0,-0.75 0,-0.34375 -0.34375,0 -1.40625,0 -0.34375,0 0,0.34375 c 0.012,0.82511 0.0252,1.69362 0.0312,2.625 0.006,0.93183 0,1.6697 0,2.1875 0,1.28283 0.0119,2.19486 0,2.71875 -0.0121,0.53077 -0.0313,0.8277 -0.0312,0.9375 l 0,0.34375 0.34375,0 1.4375,0 0.34375,0 0,-0.34375 c 0,-0.12153 -0.0131,-0.59541 -0.0312,-1.5 -0.012,-0.90318 -2e-5,-1.68718 0,-2.34375 -10e-6,-0.42819 -0.006,-0.91064 0,-1.40625 0.004,-0.33505 -10e-4,-0.42236 0,-0.5625 0.80104,-0.34582 1.5081,-0.66291 2.125,-0.875 0.52759,-0.17979 0.85165,-0.29416 1.15625,-0.375 l 0.15625,-0.0312 c 0.0446,-0.011 0.14923,-0.0541 0.1875,-0.0625 l 0.34375,-0.0625 -0.0625,-0.34375 -0.0937,-0.34375 -0.1875,-0.84375 -0.0937,-0.3125 z m 45.34375,0 -0.34375,0.0625 c -0.42637,0.10159 -0.95233,0.29663 -1.625,0.5625 -0.51336,0.2029 -1.04003,0.46091 -1.5625,0.71875 l 0,-0.75 0,-0.34375 -0.34375,0 -1.40625,0 -0.375,0 0.0312,0.34375 c 0.012,0.8251 0.0252,1.69362 0.0312,2.625 0.006,0.93183 -1e-5,1.6697 0,2.1875 0,1.28284 -0.0193,2.19489 -0.0312,2.71875 -0.0121,0.53078 10e-6,0.82784 0,0.9375 l 0,0.34375 0.34375,0 1.4375,0 0.34375,0 0,-0.34375 c 0,-0.12148 -0.0131,-0.5954 -0.0312,-1.5 -0.012,-0.90317 -0.0312,-1.68717 -0.0312,-2.34375 0,-0.4282 0.0252,-0.91065 0.0312,-1.40625 0.004,-0.35365 -10e-4,-0.45671 0,-0.59375 0.78484,-0.33794 1.51829,-0.63516 2.125,-0.84375 0.52758,-0.17979 0.85164,-0.29416 1.15625,-0.375 l 0.15625,-0.0312 c 0.0446,-0.011 0.14922,-0.0541 0.1875,-0.0625 l 0.34375,-0.0625 -0.0937,-0.34375 -0.0625,-0.3438 -0.1875,-0.84375 -0.0937,-0.3125 z m -39.875,0.0312 c -0.63887,10e-6 -1.23418,0.11534 -1.8125,0.34375 -0.57867,0.22253 -1.09338,0.54558 -1.53125,0.96875 -0.48555,0.46111 -0.85714,0.97276 -1.09375,1.5625 -0.2287,0.58026 -0.34375,1.2259 -0.34375,1.90625 0,0.70774 0.14125,1.39156 0.40625,2.03125 0.27193,0.64084 0.65803,1.18235 1.15625,1.625 0.4308,0.38036 0.92231,0.67639 1.46875,0.875 0.54635,0.19251 1.13466,0.28124 1.75,0.28125 0.65046,0 1.25215,-0.0794 1.78125,-0.28125 0.52825,-0.19906 1.00866,-0.49638 1.4375,-0.875 0.50914,-0.45284 0.88968,-1.01876 1.15625,-1.65625 0.22108,-0.51612 0.30262,-1.06909 0.34375,-1.625 l 0.0625,0 0,-0.375 0,-0.34375 -0.0625,0 c -0.0349,-0.55996 -0.0823,-1.1064 -0.28125,-1.59375 -0.24236,-0.59985 -0.63418,-1.12179 -1.125,-1.59375 -0.43164,-0.4174 -0.91119,-0.73119 -1.46875,-0.9375 -0.55216,-0.2128 -1.17981,-0.31249 -1.84375,-0.3125 z m 11.5,0 c -0.53574,10e-6 -1.13609,0.13126 -1.78125,0.40625 -0.41241,0.17752 -0.70478,0.37912 -1.03125,0.5625 l 0,-0.40625 0,-0.34375 -0.34375,0 -1.40625,0 -0.375,0 0,0.34375 c 0.0181,0.98078 0.0312,1.85179 0.0312,2.625 0.006,0.77541 0.0312,1.41881 0.0312,1.875 0,1.40015 -0.0193,2.39685 -0.0312,3 -0.0121,0.60305 -0.0313,0.89166 -0.0312,0.96875 l 0,0.34375 0.375,0 1.40625,0 0.375,0 0,-0.34375 c -2e-5,-0.0933 -0.0131,-0.54196 -0.0312,-1.46875 -0.0121,-0.93118 -0.0313,-1.74409 -0.0312,-2.40625 0,-0.38895 -0.006,-0.88668 0,-1.5 0.005,-0.51053 0.0304,-0.71755 0.0312,-0.875 0.48741,-0.27439 0.93632,-0.50779 1.3125,-0.65625 l 0.0312,0 c 0.42443,-0.17274 0.7569,-0.25 1.03125,-0.25 0.33981,0 0.59308,0.0686 0.71875,0.125 0.1442,0.0606 0.25276,0.12575 0.34375,0.25 0.0798,0.10871 0.15322,0.25638 0.1875,0.4375 0.0384,0.20329 0.0569,0.42809 0.0625,0.65625 0.006,0.26242 0,0.68185 0,1.25 0.006,0.56321 -10e-6,0.9734 0,1.25 0,0.83566 0.012,1.54532 0,2.15625 -0.0121,0.61429 -0.0312,0.94682 -0.0312,1.03125 l 0,0.34375 0.34375,0 1.4375,0 0.34375,0 0,-0.34375 c -2e-5,-0.0933 -0.0131,-0.40014 -0.0312,-1.03125 -0.012,-0.62751 0,-1.41861 0,-2.34375 -10e-6,-0.42257 -0.006,-0.85057 0,-1.3125 0.006,-0.47036 0,-0.92128 0,-1.375 -10e-6,-0.10439 0.004,-0.20131 0,-0.28125 0.47423,-0.25227 0.94181,-0.4703 1.3125,-0.59375 0.43486,-0.14289 0.78356,-0.21875 1.0625,-0.21875 0.50785,0 0.82304,0.11014 1,0.28125 0.164,0.15508 0.32686,0.5324 0.34375,1.15625 0.006,0.27974 -10e-6,0.70751 0,1.28125 0.006,0.56887 0,0.97037 0,1.21875 -10e-6,0.63417 0.012,1.31287 0,2.03125 -0.003,0.35961 -0.0283,0.64988 -0.0312,0.84375 -0.003,0.19387 -0.003,0.34219 0,0.3125 l -0.0312,0.375 0.375,0 1.09375,0 0.34375,0 0.34375,0 0,-0.34375 c -1e-5,-0.0305 0.002,-0.26059 0,-0.34375 -0.004,-0.16654 -0.0192,-0.25545 -0.0312,-0.6875 -0.012,-0.64438 -2e-5,-1.43869 0,-2.375 -2e-5,-0.45058 -0.006,-0.88127 0,-1.28125 0.0122,-0.41251 0.0312,-0.90591 0.0312,-1.5 -2e-5,-0.83657 -0.26942,-1.54725 -0.8125,-2.0625 -0.5396,-0.52504 -1.29135,-0.78124 -2.1875,-0.78125 -0.46909,10e-6 -1.01544,0.0974 -1.625,0.3125 -0.53852,0.19199 -1.12989,0.50189 -1.75,0.84375 -0.20304,-0.28872 -0.41306,-0.58764 -0.75,-0.78125 -0.4584,-0.26746 -0.98843,-0.37499 -1.625,-0.375 z m 33.5625,0 c -0.60976,10e-6 -1.21094,0.0907 -1.78125,0.3125 -0.56792,0.22342 -1.04439,0.54966 -1.4375,0.96875 l -0.0312,0 c -0.43671,0.46931 -0.74653,1.00634 -0.96875,1.5625 -0.22366,0.55982 -0.34376,1.16976 -0.34375,1.84375 -10e-6,0.69647 0.13959,1.35574 0.4375,1.9375 0.29474,0.56307 0.66445,1.03357 1.09375,1.40625 0.50098,0.44512 1.12685,0.78495 1.875,1.03125 0.7614,0.24266 1.63176,0.34374 2.625,0.34375 0.37343,0 0.71871,0.0173 1,0 0.2731,-0.0112 0.40368,-0.0201 0.5,-0.0312 l 0.25,-0.0312 0.0625,-0.28125 0.15625,-1.09375 0.0625,-0.4375 -0.4375,0.0312 c -0.0532,0.004 -0.24228,0.0145 -0.53125,0.0312 -0.27536,0.0163 -0.56793,0.0312 -0.90625,0.0312 -0.60895,0 -1.15019,-0.0635 -1.5625,-0.15625 -0.4169,-0.099 -0.77723,-0.25073 -1.09375,-0.4375 -0.50373,-0.29698 -0.86092,-0.63176 -1.09375,-1.0625 -0.17885,-0.33462 -0.20235,-0.74099 -0.25,-1.125 l 5.75,0 0.34375,0 0.34375,0 0,-0.375 0,-0.34375 -0.0625,0 c -0.0325,-0.59921 -0.0814,-1.15707 -0.25,-1.625 -0.20223,-0.56722 -0.4801,-1.0725 -0.875,-1.46875 -0.35576,-0.35375 -0.80137,-0.60849 -1.2813,-0.78115 -0.47969,-0.17254 -1.00001,-0.24999 -1.59375,-0.25 z m 9.4375,0 c -0.60976,10e-6 -1.21096,0.0907 -1.78125,0.3125 -0.56794,0.22343 -1.04439,0.54967 -1.4375,0.96875 -0.43672,0.46931 -0.77779,1.00634 -1,1.5625 -0.22366,0.55982 -0.31251,1.16976 -0.3125,1.84375 0,0.69647 0.13958,1.35573 0.4375,1.9375 0.29475,0.56306 0.66442,1.03356 1.09375,1.40625 0.50097,0.44512 1.12686,0.78495 1.875,1.03125 0.7614,0.24266 1.63176,0.34374 2.625,0.34375 0.37343,0 0.68749,0.0173 0.96875,0 0.27311,-0.0112 0.40366,-0.0201 0.5,-0.0312 l 0.28125,-0.0312 0.0312,-0.28125 0.15625,-1.09375 0.0625,-0.4375 -0.4375,0.0312 c -0.0531,0.004 -0.24227,0.0145 -0.53125,0.0312 -0.27534,0.0163 -0.56796,0.0312 -0.90625,0.0312 -0.60895,0 -1.11893,-0.0635 -1.53125,-0.15625 -0.4169,-0.099 -0.77727,-0.25074 -1.09375,-0.4375 -0.50374,-0.29698 -0.86092,-0.63176 -1.09375,-1.0625 -0.17912,-0.33513 -0.23372,-0.74032 -0.28125,-1.125 l 5.75,0 0.34375,0 0.375,0 0,-0.375 0,-0.34375 -0.0625,0 c -0.0325,-0.59922 -0.0814,-1.15708 -0.25,-1.625 -0.20225,-0.56721 -0.51133,-1.0725 -0.90625,-1.46875 -0.35572,-0.35384 -0.77007,-0.60859 -1.25,-0.78125 -0.47969,-0.17255 -1.03129,-0.24999 -1.625,-0.25 z m 20.03125,0 c -0.63888,10e-6 -1.26541,0.11534 -1.84375,0.34375 -0.57865,0.22253 -1.09339,0.54558 -1.53125,0.96875 -0.48555,0.46111 -0.82588,0.97276 -1.0625,1.5625 -0.2287,0.58027 -0.34373,1.22591 -0.34375,1.90625 0,0.70775 0.11003,1.39157 0.375,2.03125 l 0.0312,0 c 0.27195,0.64085 0.65807,1.18236 1.15625,1.625 0.43079,0.38036 0.92229,0.67639 1.46875,0.875 0.54634,0.19251 1.13467,0.28124 1.75,0.28125 0.65047,0 1.22091,-0.0794 1.75,-0.28125 0.52826,-0.19906 1.00867,-0.49638 1.4375,-0.875 0.50914,-0.45284 0.92094,-1.01875 1.1875,-1.65625 0.22108,-0.51612 0.30263,-1.06909 0.34375,-1.625 l 0.0625,0 0,-0.375 0,-0.34375 -0.0625,0 c -0.0348,-0.56037 -0.11347,-1.10609 -0.3125,-1.59375 -0.24237,-0.59984 -0.60292,-1.12178 -1.09375,-1.59375 -0.43164,-0.4174 -0.94242,-0.73119 -1.5,-0.9375 -0.55216,-0.2128 -1.14857,-0.31249 -1.8125,-0.3125 z m 11.46875,0 c -0.53575,10e-6 -1.10484,0.13126 -1.75,0.40625 -0.40608,0.1748 -0.7085,0.38205 -1.03125,0.5625 l 0,-0.40625 0,-0.34375 -0.375,0 -1.40625,0 -0.34375,0 0,0.34375 c 0.0181,0.98078 0.0312,1.8518 0.0312,2.625 0.006,0.7754 -1e-5,1.41878 0,1.875 0,1.40016 0.012,2.39686 0,3 -0.0121,0.60305 -0.0312,0.89258 -0.0312,0.96875 l 0,0.34375 0.34375,0 1.4375,0 0.34375,0 0,-0.34375 c -2e-5,-0.0932 -0.0131,-0.54196 -0.0312,-1.46875 -0.0121,-0.93117 0,-1.74408 0,-2.40625 0,-0.38896 -0.006,-0.8867 0,-1.5 0.005,-0.4922 -9.9e-4,-0.67993 0,-0.84375 0.50449,-0.28593 0.95684,-0.5348 1.34375,-0.6875 0.42444,-0.17274 0.78814,-0.25 1.0625,-0.25 0.33981,0 0.59305,0.0686 0.71875,0.125 0.1442,0.0606 0.25273,0.12573 0.34375,0.25 0.0798,0.10873 0.12198,0.2564 0.15625,0.4375 0.0385,0.20327 0.0569,0.42809 0.0625,0.65625 0.006,0.26237 0.0312,0.68184 0.0312,1.25 0.006,0.56322 -2e-5,0.97338 0,1.25 -10e-6,0.83567 -0.0192,1.54535 -0.0312,2.15625 -0.0121,0.61429 -10e-6,0.94673 0,1.03125 l 0,0.34375 0.34375,0 1.4375,0 0.34375,0 0,-0.34375 c -2e-5,-0.0934 -0.0131,-0.40015 -0.0312,-1.03125 -0.012,-0.62751 -10e-6,-1.41861 0,-2.34375 -10e-6,-0.42259 -0.006,-0.85059 0,-1.3125 0.006,-0.47037 -2e-5,-0.9213 0,-1.375 -10e-6,-0.10441 0.004,-0.20135 0,-0.28125 0.47276,-0.25129 0.91151,-0.47062 1.28125,-0.59375 0.43485,-0.14289 0.81479,-0.21875 1.09375,-0.21875 0.50785,0 0.82301,0.11012 1,0.28125 0.164,0.15509 0.29562,0.53241 0.3125,1.15625 0.006,0.27973 -2e-5,0.7075 0,1.28125 0.006,0.56886 0.0312,0.97032 0.0312,1.21875 -10e-6,0.63417 -0.0192,1.31288 -0.0312,2.03125 -0.003,0.35962 0.003,0.64988 0,0.84375 -0.003,0.19387 -0.003,0.34214 0,0.3125 l -0.0625,0.375 0.40625,0 1.0625,0 0.375,0 0.34375,0 0,-0.34375 c -10e-6,-0.0303 0.002,-0.26061 0,-0.34375 -0.004,-0.16652 -0.0192,-0.25545 -0.0312,-0.6875 -0.012,-0.64437 -0.0312,-1.43868 -0.0312,-2.375 0,-0.45061 0.0252,-0.88131 0.0312,-1.28125 0.0122,-0.41251 0,-0.90591 0,-1.5 0,-0.83657 -0.2694,-1.54725 -0.8125,-2.0625 -0.53959,-0.52504 -1.29134,-0.78124 -2.1875,-0.78125 -0.46909,10e-6 -0.9842,0.0974 -1.59375,0.3125 -0.53852,0.19199 -1.12988,0.50189 -1.75,0.84375 -0.20304,-0.28872 -0.41306,-0.58764 -0.75,-0.78125 -0.45841,-0.26746 -1.0197,-0.37499 -1.65625,-0.375 z m 38.8125,0 c -0.53575,10e-6 -1.10483,0.13126 -1.75,0.40625 -0.40608,0.1748 -0.70851,0.38205 -1.03125,0.5625 l 0,-0.40625 0,-0.34375 -0.34375,0 -1.4375,0 -0.34375,0 0,0.34375 c 0.0181,0.98078 0.0312,1.85179 0.0312,2.625 0.006,0.77541 0,1.41881 0,1.875 0,1.40016 0.012,2.39687 0,3 -0.0121,0.60305 -0.0313,0.8916 -0.0312,0.96875 l 0,0.34375 0.34375,0 1.4375,0 0.34375,0 0,-0.34375 c 0,-0.0936 -0.0131,-0.54195 -0.0312,-1.46875 -0.0121,-0.93118 -10e-6,-1.7441 0,-2.40625 0,-0.38896 -0.006,-0.88669 0,-1.5 0.005,-0.49219 -9.9e-4,-0.67988 0,-0.84375 0.5045,-0.28593 0.95685,-0.5348 1.34375,-0.6875 0.42442,-0.17274 0.78814,-0.25 1.0625,-0.25 0.33981,0 0.593,0.0686 0.71875,0.125 0.14419,0.0606 0.2527,0.12571 0.34375,0.25 0.0798,0.10872 0.12196,0.25638 0.15625,0.4375 0.0385,0.20326 0.0882,0.42809 0.0937,0.65625 0.006,0.2624 -3e-5,0.68184 0,1.25 0.006,0.56321 -10e-6,0.97339 0,1.25 0,0.83567 0.012,1.54535 0,2.15625 -0.0121,0.61429 -0.0313,0.94616 -0.0312,1.03125 l 0,0.34375 0.34375,0 1.4375,0 0.34375,0 0,-0.34375 c -2e-5,-0.0933 -0.0131,-0.40014 -0.0312,-1.03125 -0.012,-0.6275 2e-5,-1.41861 0,-2.34375 -10e-6,-0.42258 -0.006,-0.85058 0,-1.3125 0.006,-0.47035 10e-6,-0.92127 0,-1.375 -10e-6,-0.10442 0.004,-0.20133 0,-0.28125 0.47425,-0.25227 0.9418,-0.4703 1.3125,-0.59375 0.43485,-0.14289 0.78355,-0.21875 1.0625,-0.21875 0.50785,0 0.82304,0.11014 1,0.28125 0.16399,0.15509 0.29564,0.53242 0.3125,1.15625 0.006,0.27975 0.0313,0.70753 0.0312,1.28125 0.006,0.56884 -4e-5,0.97026 0,1.21875 -3e-5,0.63418 -0.0192,1.31288 -0.0312,2.03125 -0.003,0.35961 0.003,0.64989 0,0.84375 -0.003,0.19386 -0.003,0.34267 0,0.3125 l -0.0312,0.375 0.375,0 1.09375,0 0.34375,0 0.34375,0 0,-0.34375 c 0,-0.0307 0.002,-0.26058 0,-0.34375 -0.004,-0.16657 -0.0192,-0.25546 -0.0312,-0.6875 -0.012,-0.64436 -0.0312,-1.43867 -0.0312,-2.375 -1e-5,-0.45061 0.0252,-0.88133 0.0312,-1.28125 0.0122,-0.41248 0,-0.90589 0,-1.5 -2e-5,-0.83658 -0.26944,-1.54725 -0.8125,-2.0625 -0.5396,-0.52504 -1.29137,-0.78124 -2.1875,-0.78125 -0.4691,10e-6 -0.98419,0.0974 -1.59375,0.3125 -0.53849,0.19198 -1.12989,0.50189 -1.75,0.84375 -0.20304,-0.28873 -0.4131,-0.58764 -0.75,-0.78125 -0.45842,-0.26746 -1.01972,-0.37499 -1.65625,-0.375 z m 15,0 c -0.60975,10e-6 -1.21093,0.0907 -1.78125,0.3125 -0.56792,0.22342 -1.0444,0.54965 -1.4375,0.96875 -0.43671,0.4693 -0.7778,1.00632 -1,1.5625 -0.22366,0.55983 -0.34374,1.16978 -0.34375,1.84375 0,0.69647 0.17084,1.35574 0.46875,1.9375 0.29473,0.56307 0.63318,1.03357 1.0625,1.40625 0.50096,0.44512 1.12684,0.78495 1.875,1.03125 l 0.0312,0 c 0.7614,0.24266 1.63178,0.34374 2.625,0.34375 0.37343,0 0.6875,0.0173 0.96875,0 0.2731,-0.0112 0.40364,-0.0201 0.5,-0.0312 l 0.28125,-0.0312 0.0312,-0.28125 0.15625,-1.09375 0.0625,-0.4375 -0.4375,0.0312 c -0.0532,0.004 -0.24229,0.0145 -0.53125,0.0312 -0.27536,0.0163 -0.56792,0.0312 -0.90625,0.0312 -0.60896,0 -1.11898,-0.0635 -1.53125,-0.15625 -0.41688,-0.099 -0.77721,-0.25073 -1.09375,-0.4375 -0.50373,-0.29698 -0.86091,-0.63175 -1.09375,-1.0625 -0.17912,-0.33513 -0.23372,-0.74032 -0.28125,-1.125 l 5.75,0 0.34375,0 0.375,0 0,-0.375 0,-0.34375 -0.0625,0 c -0.0325,-0.59921 -0.0814,-1.15706 -0.25,-1.625 -0.20224,-0.56721 -0.51135,-1.0725 -0.90625,-1.46875 -0.35572,-0.35385 -0.77007,-0.60859 -1.25,-0.78125 -0.47968,-0.17255 -1.03126,-0.24999 -1.625,-0.25 z m 14.09375,0 c -0.60977,10e-6 -1.21096,0.0907 -1.78125,0.3125 -0.56794,0.22343 -1.04438,0.54967 -1.4375,0.96875 -0.43671,0.46931 -0.77779,1.00634 -1,1.5625 -0.22366,0.55983 -0.34372,1.16978 -0.34375,1.84375 0,0.69648 0.13964,1.35576 0.4375,1.9375 0.29475,0.56306 0.66444,1.03357 1.09375,1.40625 0.50098,0.44512 1.12686,0.78495 1.875,1.03125 0.76139,0.24266 1.66304,0.34374 2.65625,0.34375 0.37343,0 0.68746,0.0173 0.96875,0 0.2731,-0.0112 0.4036,-0.0201 0.5,-0.0312 l 0.25,-0.0312 0.0625,-0.28125 0.15625,-1.09375 0.0625,-0.4375 -0.4375,0.0312 c -0.0531,0.004 -0.24226,0.0145 -0.53125,0.0312 -0.27536,0.0163 -0.56796,0.0312 -0.90625,0.0312 -0.60895,0 -1.15018,-0.0635 -1.5625,-0.15625 -0.41689,-0.099 -0.77729,-0.25075 -1.09375,-0.4375 -0.50373,-0.29699 -0.82971,-0.63178 -1.0625,-1.0625 -0.17912,-0.33512 -0.2337,-0.7403 -0.28125,-1.125 l 5.75,0 0.34375,0 0.34375,0 0,-0.375 0,-0.34375 -0.0625,0 c -0.0325,-0.59922 -0.0814,-1.15708 -0.25,-1.625 -0.20223,-0.56723 -0.48013,-1.07251 -0.875,-1.46875 -0.35571,-0.35383 -0.80126,-0.60858 -1.28125,-0.78125 -0.47968,-0.17255 -1.00004,-0.24999 -1.59375,-0.25 z m 14.40625,0 c -0.60977,10e-6 -1.21097,0.0907 -1.78125,0.3125 -0.56794,0.22343 -1.04439,0.54967 -1.4375,0.96875 -0.43672,0.4693 -0.7778,1.00632 -1,1.5625 -0.22366,0.55983 -0.34373,1.16978 -0.34375,1.84375 0,0.69648 0.17088,1.35575 0.46875,1.9375 0.29475,0.56306 0.6332,1.03357 1.0625,1.40625 0.50098,0.44512 1.12687,0.78495 1.875,1.03125 0.7614,0.24266 1.66303,0.34374 2.65625,0.34375 0.37343,0 0.68752,0.0173 0.96875,0 0.2731,-0.0112 0.40363,-0.0201 0.5,-0.0312 l 0.28125,-0.0312 0.0312,-0.28125 0.15625,-1.09375 0.0625,-0.4375 -0.4375,0.0312 c -0.0532,0.004 -0.24225,0.0145 -0.53125,0.0312 -0.27536,0.0163 -0.56797,0.0312 -0.90625,0.0312 -0.60896,0 -1.11895,-0.0635 -1.53125,-0.15625 -0.41691,-0.099 -0.77728,-0.25074 -1.09375,-0.4375 -0.50374,-0.29698 -0.86091,-0.63175 -1.09375,-1.0625 -0.17912,-0.33513 -0.23371,-0.74031 -0.28125,-1.125 l 5.75,0 0.34375,0 0.34375,0 0.0312,0 -0.0312,-0.375 0,-0.34375 -0.0625,0 c -0.0325,-0.59893 -0.0502,-1.15728 -0.21875,-1.625 -0.20223,-0.5672 -0.5113,-1.07249 -0.90625,-1.46875 -0.35571,-0.35384 -0.80128,-0.60858 -1.28125,-0.78125 -0.47969,-0.17255 -1.00005,-0.24999 -1.59375,-0.25 z m 30.8125,0 c -0.42984,10e-6 -0.91171,0.096 -1.5,0.28125 -0.45138,0.13918 -1.05701,0.42473 -1.65625,0.71875 l 0,-0.4375 0,-0.34375 -0.34375,0 -1.4375,0 -0.34375,0 0,0.34375 c 0.0181,0.88545 0.0312,1.71556 0.0312,2.5 0.006,0.78643 -10e-6,1.47756 0,2.0625 0,1.27166 0.012,2.23175 0,2.875 -0.0121,0.64211 -0.0313,0.9553 -0.0312,1.03125 l 0,0.34375 0.34375,0 1.4375,0 0.34375,0 0,-0.34375 c -2e-5,-0.0913 -0.0131,-0.52189 -0.0312,-1.4375 -0.0121,-0.9144 -3e-5,-1.6984 0,-2.34375 0,-0.49539 -0.006,-1.05431 0,-1.65625 0.005,-0.45224 -10e-4,-0.5998 0,-0.75 0.48765,-0.26576 0.96334,-0.51206 1.4375,-0.6875 0.51901,-0.19202 0.94552,-0.28125 1.25,-0.28125 0.5561,0 0.8472,0.14014 1,0.3125 0.16187,0.18262 0.2956,0.55776 0.3125,1.15625 0.006,0.25658 0.0312,0.68186 0.0312,1.25 0.006,0.5632 2e-5,0.99344 0,1.28125 -10e-6,0.19975 -0.0192,0.71771 -0.0312,1.59375 -0.006,0.87576 0.005,1.42688 0,1.5625 l -0.0312,0.34375 0.375,0 1.09375,0 0.34375,0 0.34375,0 0,-0.34375 c -10e-6,-0.0259 10e-4,-0.27295 0,-0.34375 -0.004,-0.18038 -0.0183,-0.3297 -0.0312,-0.875 -0.0121,-0.76355 -10e-6,-1.36978 0,-1.875 -10e-6,-0.31595 -0.006,-0.74286 0,-1.25 0.0122,-0.51732 -10e-6,-1.10714 0,-1.8125 -10e-6,-0.85179 -0.26787,-1.577 -0.8125,-2.09375 -0.53418,-0.51975 -1.25299,-0.78124 -2.09375,-0.78125 z m 17.59375,0 c -0.60976,10e-6 -1.21096,0.0907 -1.78125,0.3125 -0.56793,0.22343 -1.04439,0.54967 -1.4375,0.96875 -0.43672,0.46931 -0.77778,1.00634 -1,1.5625 -0.22364,0.55981 -0.34378,1.16975 -0.34375,1.84375 0,0.69647 0.17082,1.35573 0.46875,1.9375 0.29475,0.56307 0.66447,1.03358 1.09375,1.40625 0.50097,0.44513 1.12688,0.78495 1.875,1.03125 0.76138,0.24266 1.63175,0.34374 2.625,0.34375 0.37343,0 0.68748,0.0173 0.96875,0 0.27311,-0.0112 0.40363,-0.0201 0.5,-0.0312 l 0.28125,-0.0312 0.0312,-0.28125 0.15625,-1.09375 0.0625,-0.4375 -0.4375,0.0312 c -0.0532,0.004 -0.24225,0.0145 -0.53125,0.0312 -0.27534,0.0163 -0.56796,0.0312 -0.90625,0.0312 -0.60896,0 -1.11893,-0.0635 -1.53125,-0.15625 -0.4169,-0.099 -0.77727,-0.25074 -1.09375,-0.4375 -0.50373,-0.29699 -0.86095,-0.63178 -1.09375,-1.0625 -0.17912,-0.33513 -0.23373,-0.74032 -0.28125,-1.125 l 5.75,0 0.34375,0 0.375,0 0,-0.375 0,-0.34375 -0.0625,0 c -0.0325,-0.59922 -0.0814,-1.15709 -0.25,-1.625 -0.20223,-0.56723 -0.51138,-1.07251 -0.90625,-1.46875 -0.35573,-0.35385 -0.7701,-0.60859 -1.25,-0.78125 -0.47969,-0.17255 -1.03128,-0.24999 -1.625,-0.25 z m -105.15625,0.125 c -0.2663,0.0112 -0.43407,0.0253 -0.53125,0.0312 l -0.28125,0.0312 -0.0312,0.28125 -0.15625,1.125 -0.0625,0.40625 0.4375,-0.0312 c 0.32643,-0.0168 0.56123,-0.02 0.75,-0.0312 0.18368,-0.0106 0.42072,-0.0312 0.6875,-0.0312 0.4225,0 0.78858,0.0207 1.09375,0.0625 0.30185,0.0362 0.57721,0.0985 0.8125,0.1875 0.33561,0.12613 0.56503,0.31583 0.71875,0.53125 0.0953,0.13358 0.10495,0.36738 0.15625,0.5625 -0.65848,0.0599 -1.29943,0.11712 -1.84375,0.21875 -0.66545,0.11968 -1.2005,0.27439 -1.625,0.4375 -0.6662,0.25479 -1.19278,0.59121 -1.59375,1.03125 -0.40376,0.44435 -0.62501,1.01767 -0.625,1.625 0,0.57107 0.18416,1.08065 0.53125,1.5 0.33967,0.40216 0.78683,0.71264 1.3125,0.9375 0.39513,0.17058 0.85272,0.28768 1.375,0.375 0.51937,0.0868 1.01663,0.15624 1.53125,0.15625 0.79631,0 1.45361,-0.0223 1.96875,-0.0625 0.50125,-0.0335 0.75875,-0.0546 0.84375,-0.0625 l 0.34375,-0.0312 0,-0.3125 c -10e-6,-0.0562 -0.006,-0.53547 0,-1.40625 0.005,-0.7761 -5.9e-4,-1.84909 0,-3.03125 l 0,-0.375 0,-0.34375 -0.0625,0 c -0.0253,-0.63608 -0.0498,-1.21543 -0.21875,-1.625 -0.19484,-0.4785 -0.48828,-0.89242 -0.875,-1.21875 -0.41609,-0.347 -0.92811,-0.57476 -1.53125,-0.71875 -0.58953,-0.14817 -1.26503,-0.21874 -2,-0.21875 -0.4689,1e-5 -0.84119,-0.0175 -1.125,0 z m 68.75,0 c -0.94198,10e-6 -1.75539,0.0521 -2.4375,0.15625 -0.68133,0.0992 -1.31926,0.29692 -1.90625,0.5625 -0.82244,0.37153 -1.49762,0.88545 -2,1.53125 -0.51013,0.6557 -0.74998,1.43039 -0.75,2.28125 0,0.83107 0.15827,1.56038 0.53125,2.15625 0.35917,0.57387 0.83146,1.01852 1.40625,1.375 0.57942,0.37337 1.2688,0.64354 2.0625,0.8125 0.77123,0.15854 1.54708,0.24787 2.28125,0.25 -0.0531,0.34468 -0.10958,0.68892 -0.28125,0.9375 -0.2183,0.32043 -0.6185,0.61318 -1.28125,0.84375 -0.42945,0.14635 -0.93016,0.22768 -1.46875,0.28125 -0.54775,0.0599 -1.17762,0.11397 -1.875,0.125 l -0.375,0 0.0312,0.375 0.15625,1.09375 0.0312,0.28125 0.3125,0 c 1.06619,0 1.98279,-0.0675 2.75,-0.21875 0.75855,-0.14379 1.42024,-0.33111 1.96875,-0.59375 0.69903,-0.34725 1.23849,-0.83956 1.625,-1.4375 0.40793,-0.62036 0.59373,-1.43941 0.59375,-2.4375 -10e-6,-0.52048 0.006,-1.09259 0,-1.71875 -0.006,-0.62411 0,-1.24202 0,-1.84375 -10e-6,-0.88678 -0.006,-1.79941 0,-2.78125 0.01,-0.77877 0.0293,-1.07058 0.0312,-1.3125 5.2e-4,-0.0633 0,-0.31589 0,-0.34375 l 0,-0.375 -0.375,0 c -0.12496,10e-6 -0.22891,0 -0.34375,0 -0.0626,0 -0.12786,0 -0.1875,0 -0.16293,10e-6 -0.33106,10e-6 -0.5,0 z m 5.1875,0 c -0.26632,0.0112 -0.43409,0.0253 -0.53125,0.0312 l -0.28125,0.0312 -0.0312,0.28125 -0.15625,1.125 -0.0625,0.40625 0.4375,-0.0312 c 0.32642,-0.0168 0.56121,-0.02 0.75,-0.0312 0.18366,-0.0106 0.4207,-0.0312 0.6875,-0.0312 0.42252,0 0.7886,0.0207 1.09375,0.0625 0.30184,0.0362 0.5772,0.0985 0.8125,0.1875 0.33563,0.12613 0.5651,0.31589 0.71875,0.53125 0.0968,0.1357 0.13614,0.36319 0.1875,0.5625 -0.66095,0.06 -1.32898,0.1168 -1.875,0.21875 -0.66544,0.11968 -1.20051,0.27438 -1.625,0.4375 -0.6662,0.25479 -1.19278,0.5912 -1.59375,1.03125 -0.40379,0.44436 -0.62498,0.98644 -0.625,1.59375 0,0.57107 0.18414,1.1119 0.53125,1.53125 0.33968,0.40217 0.78688,0.71264 1.3125,0.9375 0.39514,0.17058 0.85273,0.28768 1.375,0.375 0.51937,0.0868 1.01665,0.15624 1.53125,0.15625 0.79633,0 1.4536,-0.0223 1.96875,-0.0625 0.50125,-0.0335 0.75877,-0.0546 0.84375,-0.0625 l 0.34375,-0.0312 0,-0.3125 c -10e-6,-0.0561 -0.006,-0.53546 0,-1.40625 0.005,-0.77611 -6.1e-4,-1.8491 0,-3.03125 l 0,-0.375 0,-0.34375 -0.0625,0 c -0.0253,-0.63608 -0.0498,-1.21543 -0.21875,-1.625 -0.19485,-0.47851 -0.48833,-0.89243 -0.875,-1.21875 -0.41608,-0.347 -0.92807,-0.57476 -1.53125,-0.71875 -0.58952,-0.14817 -1.26505,-0.21874 -2,-0.21875 -0.46888,1e-5 -0.84123,-0.0175 -1.125,0 z m -77.78125,0.0625 c -0.83364,10e-6 -1.61968,0.071 -2.40625,0.25 -0.7836,0.17395 -1.48095,0.43459 -2.0625,0.78125 -0.64564,0.38223 -1.15921,0.89234 -1.5625,1.5 -0.41021,0.61202 -0.62501,1.29621 -0.625,2.03125 0,0.81204 0.20872,1.58643 0.65625,2.25 0.44587,0.66111 1.06787,1.17104 1.84375,1.5625 0.56785,0.28328 1.20486,0.51144 1.90625,0.65625 0.70103,0.13895 1.45141,0.18749 2.25,0.1875 0.0724,0 0.17867,-1e-5 0.28125,0 0.10863,0 0.17051,-1e-5 0.21875,0 l 0.34375,0 0,-0.3125 0.0937,-0.8125 0.0312,0 0,-0.3125 0.0312,-0.34375 -0.0312,0 0,-0.0312 -0.3125,0 -0.0312,0 -0.3125,-0.0312 0,0.0312 c -0.0927,1e-5 -0.17279,1e-5 -0.25,0 -0.5749,1e-5 -1.14494,-0.0444 -1.65625,-0.125 -0.50499,-0.0796 -0.92254,-0.19979 -1.3125,-0.375 l -0.0312,0 c -0.49479,-0.21868 -0.86116,-0.51417 -1.15625,-0.90625 -0.27799,-0.38097 -0.43751,-0.84261 -0.4375,-1.4375 0,-0.47242 0.15601,-0.9148 0.46875,-1.34375 0.30937,-0.42434 0.70861,-0.73514 1.25,-0.9375 l 0.0312,0 c 0.42334,-0.16402 0.83544,-0.27502 1.28125,-0.34375 0.45094,-0.0739 1.03123,-0.12499 1.6875,-0.125 0.0423,1e-5 0.0767,1e-5 0.125,0 0.0543,1e-5 0.11397,1e-5 0.15625,0 l 0.375,0 -0.0312,-0.375 -0.0937,-1.125 0,-0.3125 -0.34375,0 c -0.0422,1e-5 -0.0839,1e-5 -0.15625,0 -0.0664,1e-5 -0.15243,1e-5 -0.21875,0 z m 102.65625,0 c -0.83365,10e-6 -1.61967,0.071 -2.40625,0.25 -0.78361,0.17395 -1.48095,0.43459 -2.0625,0.78125 -0.64565,0.38223 -1.19047,0.89234 -1.59375,1.5 -0.41022,0.61202 -0.59377,1.2962 -0.59375,2.03125 0,0.81204 0.20871,1.58642 0.65625,2.25 0.44586,0.66111 1.0679,1.17104 1.84375,1.5625 0.56786,0.28328 1.20489,0.51144 1.90625,0.65625 0.70105,0.13895 1.4514,0.18749 2.25,0.1875 0.0724,0 0.17866,-1e-5 0.28125,0 0.10861,0 0.1705,-1e-5 0.21875,0 l 0.3125,0 0.0312,-0.3125 0.0937,-0.8125 0.0312,0 0,-0.3125 0.0312,-0.34375 -0.0312,0 0,-0.0312 -0.3125,0 -0.0312,0 -0.3125,-0.0312 0,0.0312 c -0.0952,1e-5 -0.2023,1e-5 -0.28125,0 -0.57488,1e-5 -1.11369,-0.0444 -1.625,-0.125 -0.50499,-0.0796 -0.95376,-0.19979 -1.34375,-0.375 -0.49478,-0.21868 -0.86116,-0.51417 -1.15625,-0.90625 -0.27799,-0.38096 -0.4375,-0.8426 -0.4375,-1.4375 0,-0.47243 0.15601,-0.91481 0.46875,-1.34375 0.3094,-0.42436 0.7086,-0.73515 1.25,-0.9375 0.42331,-0.16402 0.86669,-0.27502 1.3125,-0.34375 0.45092,-0.0739 1.03124,-0.12499 1.6875,-0.125 0.0423,1e-5 0.0767,1e-5 0.125,0 0.0543,1e-5 0.11398,1e-5 0.15625,0 l 0.34375,0 0,-0.375 -0.0937,-1.125 0,-0.3125 -0.34375,0 c -0.0422,1e-5 -0.0838,1e-5 -0.15625,0 -0.0664,1e-5 -0.15243,1e-5 -0.21875,0 z m -165.40625,1.5 c 0.60749,10e-6 1.06494,0.17036 1.40625,0.5 0.24983,0.23445 0.35104,0.61942 0.46875,1 l -3.90625,0 c 0.16147,-0.37249 0.31836,-0.75885 0.59375,-1 0.38792,-0.34447 0.83095,-0.5 1.4375,-0.5 z m 9.46875,0 c 0.60747,10e-6 1.03371,0.17037 1.375,0.5 0.24983,0.23445 0.35103,0.61941 0.46875,1 l -3.90625,0 c 0.16147,-0.37249 0.31837,-0.75885 0.59375,-1 0.38794,-0.34448 0.8622,-0.5 1.46875,-0.5 z m 85.3125,0 c 0.60749,10e-6 1.03371,0.17037 1.375,0.5 0.24984,0.23445 0.35103,0.61942 0.46875,1 l -3.90625,0 c 0.16148,-0.37249 0.31838,-0.75885 0.59375,-1 0.38792,-0.34447 0.86221,-0.5 1.46875,-0.5 z m 14.0625,0 c 0.60749,10e-6 1.06491,0.17035 1.40625,0.5 0.24983,0.23445 0.35104,0.61942 0.46875,1 l -3.90625,0 c 0.16147,-0.37249 0.31836,-0.75885 0.59375,-1 0.38793,-0.34447 0.83098,-0.5 1.4375,-0.5 z m 14.4375,0 c 0.6075,10e-6 1.03365,0.17034 1.375,0.5 0.24983,0.23445 0.35104,0.61942 0.46875,1 l -3.90625,0 c 0.16147,-0.37249 0.31836,-0.75886 0.59375,-1 0.38792,-0.34447 0.86223,-0.5 1.46875,-0.5 z m 48.40625,0 c 0.6075,10e-6 1.03367,0.17035 1.375,0.5 0.24983,0.23445 0.35102,0.61941 0.46875,1 l -3.90625,0 c 0.16147,-0.37249 0.31836,-0.75885 0.59375,-1 0.38791,-0.34447 0.86224,-0.5 1.46875,-0.5 z M 396.84375,192.5 c 0.31096,1e-5 0.62513,0.0532 0.90625,0.15625 0.28602,0.098 0.52036,0.22746 0.71875,0.40625 l 0,0.0312 c 0.34325,0.30264 0.58754,0.64799 0.75,1.09375 0.17275,0.45881 0.25,0.9231 0.25,1.40625 -10e-6,0.46037 -0.0851,0.89549 -0.25,1.3125 -0.16355,0.41349 -0.38115,0.77414 -0.6875,1.0625 -0.21288,0.20169 -0.45954,0.36128 -0.75,0.46875 -0.28386,0.10697 -0.59503,0.15625 -0.9375,0.15625 -0.30992,0 -0.6038,-0.0365 -0.875,-0.125 -0.27118,-0.0935 -0.48591,-0.23889 -0.6875,-0.40625 -0.37577,-0.31232 -0.6473,-0.6747 -0.8125,-1.09375 -0.17009,-0.43644 -0.25,-0.90643 -0.25,-1.4375 -10e-6,-0.46034 0.0841,-0.91399 0.25,-1.34375 0.17121,-0.42913 0.37753,-0.73733 0.65625,-1 l 0,-0.0312 c 0.24367,-0.23542 0.52022,-0.39583 0.78125,-0.5 0.25732,-0.10266 0.55549,-0.15624 0.9375,-0.15625 z m 74.53125,0 c 0.31096,1e-5 0.59387,0.0532 0.875,0.15625 0.28602,0.098 0.52035,0.22746 0.71875,0.40625 l 0.0312,0.0312 c 0.34324,0.30264 0.58756,0.648 0.75,1.09375 0.17276,0.4588 0.24998,0.92309 0.25,1.40625 -1e-5,0.46036 -0.0851,0.89547 -0.25,1.3125 -0.16354,0.41348 -0.38116,0.77413 -0.6875,1.0625 -0.21288,0.20169 -0.45953,0.36128 -0.75,0.46875 -0.28385,0.10697 -0.59501,0.15625 -0.9375,0.15625 -0.3099,0 -0.60378,-0.0365 -0.875,-0.125 -0.27118,-0.0934 -0.51713,-0.23888 -0.71875,-0.40625 -0.37576,-0.31231 -0.61602,-0.67468 -0.78125,-1.09375 -0.17008,-0.43645 -0.28124,-0.90643 -0.28125,-1.4375 0,-0.46035 0.0841,-0.91399 0.25,-1.34375 0.17121,-0.42912 0.40879,-0.73732 0.6875,-1 l 0,-0.0312 c 0.24367,-0.23541 0.48898,-0.39583 0.75,-0.5 0.25731,-0.10266 0.58671,-0.15624 0.96875,-0.15625 z m 105.0625,0.15625 c 0.008,0.52423 0.0312,1.04076 0.0312,1.53125 0.005,0.46414 -10e-4,0.81204 0,1.15625 3.1e-4,0.10233 0,0.25204 0,0.34375 l 0,0.34375 c -8.7e-4,0.59684 0.005,1.16566 0,1.625 -0.004,0.35034 -0.0299,0.43787 -0.0312,0.59375 -0.50963,-0.002 -1.01451,-0.0629 -1.46875,-0.15625 -0.46346,-0.0965 -0.84656,-0.22506 -1.1875,-0.375 -0.49524,-0.21885 -0.86778,-0.52081 -1.15625,-0.90625 -0.27338,-0.37214 -0.43753,-0.79047 -0.4375,-1.34375 0,-0.53363 0.15042,-0.98823 0.4375,-1.40625 0.28362,-0.41294 0.68675,-0.74398 1.25,-0.96875 0.4449,-0.17636 0.8631,-0.28151 1.25,-0.34375 0.36423,-0.0577 0.82421,-0.0886 1.3125,-0.0937 z m -113.75,0.21875 c 0,0.13537 -10e-6,0.27227 0,0.40625 0,0.14515 0,0.27422 0,0.40625 0,0.11172 -10e-6,0.24141 0,0.34375 l 0,0.34375 c -5.2e-4,1.37798 -0.0258,2.53983 -0.0312,3.25 -0.004,0.54709 0.001,0.6847 0,0.875 -0.50606,-0.007 -1.00596,-0.0364 -1.46875,-0.125 -0.49333,-0.10081 -0.9266,-0.24608 -1.3125,-0.4375 -0.43153,-0.2122 -0.77454,-0.50311 -1.0625,-0.875 -0.27173,-0.35092 -0.40624,-0.77115 -0.40625,-1.28125 0,-0.58164 0.14807,-1.05502 0.4375,-1.46875 0.2921,-0.42248 0.69754,-0.73368 1.25,-0.96875 0.34882,-0.14852 0.76986,-0.28359 1.28125,-0.375 0.40799,-0.0721 0.86072,-0.0787 1.3125,-0.0937 z m 49.4375,2.8125 c 0.002,0.21525 0,0.4451 0,0.625 -10e-6,0.15145 0,0.2509 0,0.375 l 0,0.34375 0,0.34375 c -10e-4,0.36665 0.004,0.72832 0,0.96875 l 0,0.0312 c 0,0.13562 0,0.1324 0,0.21875 -0.0707,0.002 -0.15074,-0.002 -0.21875,0 -0.17249,0.005 -0.32228,10e-6 -0.4375,0 -0.38686,0 -0.74528,-0.0249 -1.09375,-0.0625 -0.33755,-0.0423 -0.63424,-0.10021 -0.90625,-0.1875 -0.34495,-0.10968 -0.60655,-0.25844 -0.78125,-0.4375 -0.15825,-0.16618 -0.21876,-0.37656 -0.21875,-0.6875 0,-0.25863 0.0853,-0.41672 0.28125,-0.59375 0.23201,-0.20484 0.48475,-0.36591 0.78125,-0.46875 0.41954,-0.15005 0.9479,-0.26229 1.59375,-0.34375 0.48035,-0.0646 0.73867,-0.10219 1,-0.125 z m 73.9375,0 c 0.002,0.21525 -2e-5,0.44506 0,0.625 -10e-6,0.15145 0,0.2509 0,0.375 l 0,0.34375 0,0.34375 c -10e-4,0.36665 0.004,0.7283 0,0.96875 l 0,0.0312 c 0,0.13562 0,0.13243 0,0.21875 -0.0707,0.002 -0.15073,-0.002 -0.21875,0 -0.1725,0.005 -0.32226,10e-6 -0.4375,0 -0.38686,0 -0.74532,-0.0249 -1.09375,-0.0625 -0.33755,-0.0423 -0.63426,-0.10021 -0.90625,-0.1875 -0.34494,-0.10968 -0.60654,-0.25843 -0.78125,-0.4375 -0.15825,-0.16618 -0.21877,-0.37656 -0.21875,-0.6875 0,-0.25863 0.0853,-0.41672 0.28125,-0.59375 0.232,-0.20483 0.48477,-0.36591 0.78125,-0.46875 0.41955,-0.15005 0.94791,-0.26229 1.59375,-0.34375 0.48033,-0.0646 0.73866,-0.10219 1,-0.125 z"
       id="path3669"
       style="font-style:normal;font-variant:normal;font-weight:normal;font-stretch:normal;font-size:19.75634766px;line-height:100%;font-family:Skia;text-align:start;writing-mode:lr-tb;text-anchor:start;fill:#000000;fill-opacity:1;stroke:none"
       inkscape:connector-curvature="0" />
  </g>
  <path
     d="m 393.80262,249.5688 c -1.8685,2e-5 -3.48331,0.19186 -4.84251,0.69179 -1.31699,0.48436 -2.45711,1.18264 -3.30521,1.99849 -0.93817,0.91272 -1.60711,1.89583 -1.99849,2.99775 -0.38101,1.05725 -0.53816,2.24636 -0.53806,3.5358 l 0,0.15373 -3.5358,0 -0.84552,0 0,0.84552 0,2.38282 0,0.84552 0.84552,0 3.5358,0 c -0.002,4.38799 -0.0492,8.43122 -0.0767,11.83725 -0.0298,3.63877 -3e-5,5.50596 0,5.7649 l 0,0.84551 0.84552,0 3.5358,0 0.84552,0 0,-0.84551 c 0,-0.25844 -0.0472,-2.26882 -0.0767,-6.07236 -0.0148,-3.55509 9.9e-4,-7.42651 0,-11.52979 l 6.68728,0 0.92238,0 0,-0.84552 0,-2.38282 0,-0.84552 -0.92238,0 -6.68728,0 0,-0.0767 c 0,-0.84124 0.09,-1.59041 0.30746,-2.22909 0.229,-0.64712 0.56426,-1.07233 0.92239,-1.38358 0.54846,-0.48372 1.16269,-0.8006 1.84476,-0.99925 0.67283,-0.19579 1.72725,-0.3843 3.07461,-0.38432 0.10208,2e-5 0.24747,0 0.38433,0 l 0,0.15373 1.15298,-0.15373 0.38433,0 0,-0.0767 0.15373,0 -0.15373,-0.84552 0,-0.76866 -0.0768,0 -0.30746,-1.92163 -0.15373,-0.69178 -0.69178,0 c -0.0885,2e-5 -0.27084,2e-5 -0.53806,0 -0.25229,2e-5 -0.4988,2e-5 -0.69179,0 z m 111.5315,0 c -1.86848,2e-5 -3.48329,0.19186 -4.84251,0.69179 -1.31699,0.48436 -2.45708,1.18266 -3.30521,1.99849 -0.93813,0.91272 -1.60706,1.89583 -1.9985,2.99775 -0.38098,1.05725 -0.53805,2.24641 -0.53805,3.5358 l 0,0.15373 -3.53581,0 -0.84551,0 0,0.84552 0,2.38282 0,0.84552 0.84551,0 3.53581,0 c -0.002,4.38796 -0.0492,8.43122 -0.0768,11.83725 -0.0298,3.63877 -0.0767,5.5068 -0.0767,5.7649 l 0,0.84551 0.92238,0 3.45894,0 0.92238,0 0,-0.84551 c 0,-0.25842 -0.0472,-2.26882 -0.0767,-6.07236 -0.0148,-3.55509 9.6e-4,-7.42651 0,-11.52979 l 6.68728,0 0.84552,0 0,-0.84552 0,-2.38282 0,-0.84552 -0.84552,0 -6.68728,0 0,-0.0767 c 0,-0.84121 0.09,-1.59039 0.30746,-2.22909 0.229,-0.6471 0.56423,-1.07233 0.92239,-1.38358 0.54848,-0.48374 1.08583,-0.80063 1.7679,-0.99925 0.67289,-0.19603 1.72724,-0.3843 3.07461,-0.38432 0.10208,2e-5 0.24749,0 0.38432,0 l 0,0.15373 1.15298,-0.15373 0.4612,0 0,-0.0767 0.15373,0 -0.15373,-0.84552 0,-0.76866 -0.15374,0 -0.30746,-1.92163 -0.0767,-0.69178 -0.76865,0 c -0.0885,2e-5 -0.27089,2e-5 -0.53806,0 -0.25226,2e-5 -0.42196,2e-5 -0.61492,0 z m 82.24583,0 0,0.84552 0.0767,8.76264 c -1.35829,0.0418 -2.75576,0.0612 -4.15072,0.30746 -1.68964,0.28417 -3.19688,0.72428 -4.53505,1.30671 -2.27128,0.9563 -4.05758,2.30741 -5.30371,4.07386 -1.24504,1.74999 -1.84476,3.82813 -1.84476,6.07235 0,1.94963 0.57141,3.78967 1.69103,5.38057 1.12708,1.60165 2.75746,2.83831 4.84251,3.7664 1.58439,0.70401 3.24977,1.15261 4.91938,1.38357 1.66044,0.244 3.85792,0.38433 6.68728,0.38433 0.29605,0 0.67304,0.0148 1.15298,0 0.47501,0 0.7567,-2e-5 0.84552,0 l 0.84551,0 0,-0.0767 0,-0.84552 c -0.002,-0.23834 0.002,-0.59436 0,-0.84552 -0.0147,-1.5301 -0.0514,-3.14422 -0.0767,-5.14997 -0.0148,-2.34571 -5e-5,-4.94456 0,-7.84026 -2e-5,-3.66378 -0.0298,-7.34733 0,-10.91486 0.0298,-3.57014 0.0767,-5.4595 0.0767,-5.7649 l 0,-0.84552 -0.84551,0 -3.53581,0 -0.84551,0 z m 231.05698,0 0.0767,0.84552 c 0.0445,3.09987 -2e-5,5.96132 0,8.45518 0.0148,2.48416 0.077,4.5179 0.0767,6.14922 0,2.5368 -0.0472,5.75127 -0.0767,9.60816 -0.007,1.92177 0.007,3.38094 0,4.38132 -0.005,0.5002 0.002,0.88511 0,1.15297 -0.002,0.26786 -0.01,0.48569 0,0.38433 l -0.15373,0.92238 0.99925,0 2.61342,0 0.92238,0 0.84552,0 0,-0.84551 c 0,-0.0357 8.8e-4,-0.7277 0,-0.84552 -0.005,-0.56785 -0.0524,-1.49247 -0.0767,-4.07386 -0.0298,-3.1132 4e-5,-6.75649 0,-10.91487 0,-1.90633 -0.0148,-4.22223 0,-6.99474 0.0147,-2.7854 0.0472,-5.26776 0.0767,-7.37906 l 0,-0.84552 -0.84552,0 -3.5358,0 -0.92239,0 z m -406.38665,8.76264 -0.84551,0.15373 c -1.04881,0.24988 -2.34244,0.72962 -3.997,1.38357 -1.26273,0.49908 -2.55817,1.1337 -3.84326,1.76791 l 0,-1.84477 0,-0.84552 -0.84552,0 -3.45893,0 -0.84552,0 0,0.84552 c 0.0295,2.02951 0.062,4.16578 0.0767,6.45668 0.0148,2.29201 0,4.10694 0,5.38057 0,3.15536 0.0293,5.39867 0,6.68728 -0.0298,1.30553 -0.077,2.03588 -0.0767,2.30596 l 0,0.84551 0.84552,0 3.5358,0 0.84552,0 0,-0.84551 c 0,-0.29893 -0.0322,-1.46453 -0.0768,-3.68954 -0.0295,-2.22154 -5e-5,-4.14993 0,-5.76489 -2e-5,-1.05322 -0.0148,-2.23989 0,-3.45894 0.01,-0.82412 -0.002,-1.03887 0,-1.38357 1.97031,-0.85061 3.70946,-1.63056 5.22684,-2.15223 1.29771,-0.44223 2.09479,-0.72354 2.84402,-0.92238 l 0.38432,-0.0768 c 0.1097,-0.027 0.36706,-0.13306 0.46119,-0.15373 l 0.84552,-0.15373 -0.15373,-0.84551 -0.23047,-0.84552 -0.46119,-2.07536 -0.23048,-0.76866 z m 111.5315,0 -0.84552,0.15373 c -1.04873,0.24988 -2.34243,0.72962 -3.99699,1.38357 -1.26271,0.49908 -2.55815,1.1337 -3.84326,1.76791 l 0,-1.84477 0,-0.84552 -0.84552,0 -3.45894,0 -0.92238,0 0.0767,0.84552 c 0.0298,2.02949 0.062,4.16578 0.0767,6.45668 0.0148,2.29201 -2e-5,4.10694 0,5.38057 0,3.15539 -0.0475,5.39875 -0.0767,6.68728 -0.0298,1.30555 3e-5,2.03623 0,2.30596 l 0,0.84551 0.84552,0 3.5358,0 0.84552,0 0,-0.84551 c 0,-0.29881 -0.0322,-1.4645 -0.0767,-3.68954 -0.0295,-2.22151 -0.0767,-4.14991 -0.0767,-5.76489 0,-1.05324 0.062,-2.23992 0.0767,-3.45894 0.01,-0.86987 -0.002,-1.12336 0,-1.46044 1.93046,-0.83123 3.73452,-1.56229 5.22683,-2.07536 1.29769,-0.44223 2.09477,-0.72354 2.84402,-0.92238 l 0.38432,-0.0768 c 0.10971,-0.027 0.36704,-0.13306 0.4612,-0.15373 l 0.84551,-0.15373 -0.23047,-0.84551 -0.15373,-0.84552 -0.46119,-2.07536 -0.23047,-0.76866 z m -98.08007,0.0767 c -1.57143,3e-5 -3.0357,0.2837 -4.45819,0.84552 -1.42335,0.54735 -2.68937,1.34196 -3.7664,2.38282 -1.1943,1.13419 -2.10829,2.39269 -2.69028,3.84327 -0.56253,1.42725 -0.84552,3.01533 -0.84552,4.68878 0,1.74082 0.34743,3.4228 0.99925,4.99624 0.66886,1.57627 1.61855,2.90821 2.84401,3.99699 1.05964,0.93557 2.2686,1.66371 3.61267,2.15223 1.34385,0.47351 2.79091,0.69176 4.30446,0.69179 1.59992,0 3.07989,-0.1953 4.38132,-0.69179 1.29933,-0.48963 2.48099,-1.22094 3.5358,-2.15223 1.25232,-1.11384 2.18833,-2.50583 2.84401,-4.07386 0.54379,-1.26949 0.74435,-2.62962 0.84552,-3.99699 l 0.15373,0 0,-0.92238 0,-0.84552 -0.15373,0 c -0.0858,-1.37733 -0.20243,-2.7214 -0.69179,-3.92013 -0.59613,-1.47544 -1.55988,-2.75925 -2.76715,-3.92013 -1.0617,-1.02667 -2.24124,-1.7985 -3.61266,-2.30596 -1.35815,-0.52342 -2.90197,-0.76862 -4.53505,-0.76865 z m 28.28641,0 c -1.31775,3e-5 -2.79442,0.32286 -4.38132,0.99925 -1.0144,0.43664 -1.73354,0.93252 -2.53655,1.38358 l 0,-0.99925 0,-0.84552 -0.84552,0 -3.45894,0 -0.92238,0 0,0.84552 c 0.0445,2.41241 0.0767,4.55482 0.0767,6.45668 0.0148,1.90727 0.0768,3.48983 0.0768,4.61191 0,3.44394 -0.0475,5.89551 -0.0768,7.37907 -0.0298,1.48331 -0.077,2.19321 -0.0767,2.38282 l 0,0.84552 0.92238,0 3.45894,0 0.92238,0 0,-0.84552 c -5e-5,-0.22949 -0.0322,-1.33305 -0.0767,-3.61266 -0.0298,-2.29042 -0.077,-4.28992 -0.0767,-5.91863 0,-0.9567 -0.0148,-2.18096 0,-3.68953 0.0123,-1.25575 0.0748,-1.76495 0.0767,-2.15223 1.19888,-0.67491 2.30306,-1.249 3.22834,-1.61417 l 0.0767,0 c 1.04396,-0.42489 1.86173,-0.61492 2.53655,-0.61492 0.83583,0 1.45879,0.16873 1.7679,0.30746 0.35469,0.14906 0.62171,0.3093 0.84552,0.61492 0.19628,0.26739 0.37687,0.63062 0.46119,1.07611 0.0944,0.50003 0.13996,1.05297 0.15373,1.61418 0.0148,0.64547 0,1.67713 0,3.07461 0.0148,1.38532 -2e-5,2.39426 0,3.07461 0,2.05546 0.0295,3.801 0,5.3037 -0.0298,1.51096 -0.0767,2.32888 -0.0767,2.53655 l 0,0.84552 0.84552,0 3.5358,0 0.84552,0 0,-0.84552 c -5e-5,-0.22949 -0.0322,-0.98422 -0.0768,-2.53655 -0.0295,-1.54348 0,-3.48934 0,-5.7649 -2e-5,-1.03939 -0.0148,-2.09213 0,-3.22834 0.0148,-1.15694 0,-2.26606 0,-3.38207 -2e-5,-0.25676 0.01,-0.49516 0,-0.69179 1.16646,-0.6205 2.31656,-1.15679 3.22834,-1.46044 1.06962,-0.35146 1.92732,-0.53805 2.61342,-0.53805 1.24916,0 2.02442,0.27091 2.45969,0.69179 0.40339,0.38144 0.80398,1.30953 0.84552,2.84401 0.0148,0.68807 -3e-5,1.74025 0,3.15148 0.0148,1.39924 0,2.3868 0,2.99774 -3e-5,1.55986 0.0295,3.22925 0,4.99624 -0.007,0.88453 -0.0694,1.59851 -0.0767,2.07536 -0.007,0.47686 -0.007,0.84169 0,0.76866 l -0.0768,0.92238 0.92239,0 2.69028,0 0.84552,0 0.84552,0 0,-0.84552 c -3e-5,-0.075 0.005,-0.64097 0,-0.84552 -0.01,-0.40963 -0.0472,-0.62832 -0.0767,-1.69103 -0.0295,-1.58497 -5e-5,-3.53873 0,-5.84176 -5e-5,-1.10829 -0.0148,-2.16765 0,-3.15148 0.03,-1.01464 0.0767,-2.22825 0.0767,-3.68953 -5e-5,-2.0577 -0.66269,-3.80575 -1.9985,-5.07311 -1.32725,-1.29143 -3.17632,-1.9216 -5.38057,-1.92163 -1.15381,3e-5 -2.49766,0.23958 -3.99699,0.76865 -1.32459,0.47224 -2.77918,1.2345 -4.30446,2.07537 -0.49941,-0.71016 -1.01599,-1.44541 -1.84476,-1.92163 -1.12752,-0.65787 -2.43123,-0.92236 -3.997,-0.92239 z m 82.55329,0 c -1.49982,3e-5 -2.97853,0.2231 -4.38132,0.76865 -1.3969,0.54955 -2.56887,1.352 -3.5358,2.38283 l -0.0767,0 c -1.07417,1.15435 -1.83623,2.47528 -2.38282,3.84326 -0.55014,1.37698 -0.84555,2.87725 -0.84552,4.53505 -3e-5,1.7131 0.34335,3.3347 1.07611,4.76565 0.72497,1.38497 1.63434,2.54226 2.69029,3.45893 1.23225,1.09486 2.7717,1.93074 4.61191,2.53656 1.87281,0.59687 4.01362,0.84549 6.45668,0.84552 0.91853,0 1.76781,0.0426 2.45969,0 0.67174,-0.0275 0.99293,-0.0494 1.22985,-0.0768 l 0.61492,-0.0767 0.15373,-0.69179 0.38433,-2.69028 0.15373,-1.07611 -1.07612,0.0767 c -0.13085,0.01 -0.59593,0.0357 -1.30671,0.0767 -0.6773,0.0401 -1.39693,0.0767 -2.22909,0.0767 -1.49783,0 -2.82911,-0.15619 -3.84326,-0.38432 -1.02545,-0.24351 -1.91175,-0.61672 -2.69029,-1.07612 -1.23902,-0.73048 -2.11759,-1.55393 -2.69028,-2.61342 -0.43992,-0.82306 -0.49772,-1.8226 -0.61492,-2.76715 l 14.14321,0 0.84551,0 0.84552,0 0,-0.92238 0,-0.84552 -0.15373,0 c -0.0799,-1.47387 -0.20022,-2.84603 -0.61492,-3.99699 -0.49742,-1.39518 -1.1809,-2.63802 -2.15223,-3.61267 -0.87493,-0.87036 -1.971,-1.49694 -3.15147,-1.92163 -1.17989,-0.42439 -2.45972,-0.6149 -3.92013,-0.61492 z m 23.21331,0 c -1.49982,3e-5 -2.97858,0.2231 -4.38132,0.76865 -1.39695,0.54957 -2.56887,1.35202 -3.5358,2.38283 -1.07419,1.15435 -1.91312,2.47528 -2.45969,3.84326 -0.55013,1.37698 -0.76867,2.87725 -0.76865,4.53505 0,1.7131 0.34332,3.33467 1.07611,4.76565 0.725,1.38495 1.63427,2.54223 2.69029,3.45893 1.23223,1.09486 2.77172,1.93074 4.61191,2.53656 1.87281,0.59687 4.01363,0.84549 6.45669,0.84552 0.91852,0 1.69101,0.0426 2.38282,0 0.67176,-0.0275 0.99288,-0.0494 1.22984,-0.0768 l 0.69179,-0.0767 0.0767,-0.69179 0.38433,-2.69028 0.15373,-1.07611 -1.07611,0.0767 c -0.13061,0.01 -0.59591,0.0357 -1.30671,0.0767 -0.67725,0.0401 -1.39701,0.0767 -2.2291,0.0767 -1.49782,0 -2.75221,-0.15619 -3.76639,-0.38432 -1.02545,-0.24351 -1.91185,-0.61675 -2.69029,-1.07612 -1.23904,-0.73048 -2.11759,-1.55393 -2.69028,-2.61342 -0.44058,-0.82431 -0.57488,-1.82095 -0.69179,-2.76715 l 14.14321,0 0.84552,0 0.92238,0 0,-0.92238 0,-0.84552 -0.15373,0 c -0.0799,-1.47389 -0.20022,-2.84605 -0.61492,-3.99699 -0.49747,-1.39516 -1.25772,-2.63802 -2.2291,-3.61267 -0.87496,-0.87033 -1.89413,-1.49694 -3.07461,-1.92163 -1.17988,-0.42442 -2.53665,-0.6149 -3.99699,-0.61492 z m 49.27064,0 c -1.57145,3e-5 -3.11252,0.2837 -4.53505,0.84552 -1.4233,0.54735 -2.6894,1.34196 -3.7664,2.38282 -1.1943,1.13419 -2.03141,2.39269 -2.61342,3.84327 -0.56253,1.42728 -0.84547,3.01535 -0.84552,4.68878 0,1.74084 0.27064,3.42283 0.92238,4.99624 l 0.0767,0 c 0.66891,1.57629 1.61864,2.90824 2.84401,3.99699 1.05961,0.93557 2.26855,1.66371 3.61267,2.15223 1.34383,0.47351 2.79093,0.69176 4.30445,0.69179 1.59996,0 3.00306,-0.1953 4.30446,-0.69179 1.29935,-0.48963 2.48101,-1.22094 3.5358,-2.15223 1.25233,-1.11384 2.26523,-2.5058 2.92088,-4.07386 0.54379,-1.26949 0.74438,-2.62962 0.84552,-3.99699 l 0.15373,0 0,-0.92238 0,-0.84552 -0.15373,0 c -0.0856,-1.37834 -0.2791,-2.72064 -0.76865,-3.92013 -0.59616,-1.47542 -1.483,-2.75923 -2.69029,-3.92013 -1.0617,-1.02667 -2.31806,-1.7985 -3.68953,-2.30596 -1.35814,-0.52342 -2.82513,-0.76862 -4.45819,-0.76865 z m 28.20955,0 c -1.31778,3e-5 -2.71756,0.32286 -4.30446,0.99925 -0.99883,0.42995 -1.74269,0.93972 -2.53655,1.38358 l 0,-0.99925 0,-0.84552 -0.92238,0 -3.45894,0 -0.84552,0 0,0.84552 c 0.0445,2.41241 0.0767,4.55485 0.0767,6.45668 0.0148,1.90724 -2e-5,3.48976 0,4.61191 0,3.44396 0.0295,5.89553 0,7.37907 -0.0298,1.48331 -0.0767,2.19547 -0.0767,2.38282 l 0,0.84552 0.84552,0 3.5358,0 0.84552,0 0,-0.84552 c -5e-5,-0.22924 -0.0322,-1.33305 -0.0767,-3.61266 -0.0298,-2.29039 0,-4.2899 0,-5.91863 0,-0.95672 -0.0148,-2.18101 0,-3.68953 0.0123,-1.21066 -0.002,-1.67242 0,-2.07536 1.24089,-0.7033 2.35353,-1.31545 3.3052,-1.69104 1.04399,-0.42489 1.93858,-0.61492 2.61342,-0.61492 0.83583,0 1.45872,0.16873 1.7679,0.30746 0.35469,0.14906 0.62164,0.30926 0.84552,0.61492 0.19628,0.26744 0.30003,0.63066 0.38433,1.07611 0.0947,0.49999 0.13995,1.05297 0.15373,1.61418 0.0148,0.64534 0.0767,1.67711 0.0767,3.07461 0.0148,1.38534 -5e-5,2.39421 0,3.07461 -2e-5,2.05548 -0.0472,3.80108 -0.0767,5.3037 -0.0298,1.51096 -3e-5,2.32866 0,2.53655 l 0,0.84552 0.84552,0 3.5358,0 0.84552,0 0,-0.84552 c -5e-5,-0.22973 -0.0322,-0.98424 -0.0768,-2.53655 -0.0295,-1.54348 -2e-5,-3.48934 0,-5.7649 -2e-5,-1.03944 -0.0147,-2.09218 0,-3.22834 0.0148,-1.15696 -5e-5,-2.26611 0,-3.38207 -2e-5,-0.25681 0.01,-0.49526 0,-0.69179 1.16285,-0.61809 2.24203,-1.15757 3.15148,-1.46044 1.0696,-0.35146 2.00413,-0.53805 2.69028,-0.53805 1.24916,0 2.02435,0.27086 2.45969,0.69179 0.40339,0.38147 0.72714,1.30956 0.76866,2.84401 0.0148,0.68805 -5e-5,1.74023 0,3.15148 0.0148,1.39921 0.0767,2.38668 0.0767,2.99774 -3e-5,1.55986 -0.0472,3.22928 -0.0767,4.99624 -0.007,0.88456 0.007,1.59851 0,2.07536 -0.007,0.47686 -0.007,0.84156 0,0.76866 l -0.15374,0.92238 0.99925,0 2.61342,0 0.92239,0 0.84551,0 0,-0.84552 c -2e-5,-0.0745 0.005,-0.64102 0,-0.84552 -0.01,-0.40958 -0.0472,-0.62832 -0.0767,-1.69103 -0.0295,-1.58495 -0.0767,-3.53871 -0.0767,-5.84176 0,-1.10836 0.062,-2.16775 0.0767,-3.15148 0.03,-1.01464 0,-2.22825 0,-3.68953 0,-2.0577 -0.66264,-3.80575 -1.9985,-5.07311 -1.32722,-1.29143 -3.17629,-1.9216 -5.38056,-1.92163 -1.15382,3e-5 -2.42083,0.23958 -3.92013,0.76865 -1.32459,0.47224 -2.77916,1.2345 -4.30446,2.07537 -0.49941,-0.71016 -1.016,-1.44541 -1.84476,-1.92163 -1.12755,-0.65787 -2.50815,-0.92236 -4.07386,-0.92239 z m 95.46665,0 c -1.31777,3e-5 -2.71753,0.32286 -4.30445,0.99925 -0.99883,0.42995 -1.74271,0.93972 -2.53655,1.38358 l 0,-0.99925 0,-0.84552 -0.84552,0 -3.5358,0 -0.84552,0 0,0.84552 c 0.0445,2.41241 0.0767,4.55482 0.0767,6.45668 0.0148,1.90727 0,3.48983 0,4.61191 0,3.44396 0.0295,5.89556 0,7.37907 -0.0298,1.48331 -0.077,2.19306 -0.0767,2.38282 l 0,0.84552 0.84552,0 3.5358,0 0.84552,0 0,-0.84552 c 0,-0.23022 -0.0322,-1.33303 -0.0767,-3.61266 -0.0298,-2.29042 -2e-5,-4.28995 0,-5.91863 0,-0.95672 -0.0148,-2.18098 0,-3.68953 0.0123,-1.21064 -0.002,-1.6723 0,-2.07536 1.24092,-0.7033 2.35356,-1.31545 3.30521,-1.69104 1.04394,-0.42489 1.93858,-0.61492 2.61342,-0.61492 0.83583,0 1.45859,0.16873 1.7679,0.30746 0.35466,0.14906 0.62156,0.30921 0.84552,0.61492 0.19628,0.26742 0.29998,0.63062 0.38432,1.07611 0.0947,0.49996 0.2167,1.05297 0.23048,1.61418 0.0148,0.64542 -8e-5,1.67711 0,3.07461 0.0148,1.38532 -3e-5,2.39423 0,3.07461 0,2.05548 0.0295,3.80108 0,5.3037 -0.0298,1.51096 -0.077,2.32726 -0.0767,2.53655 l 0,0.84552 0.84552,0 3.5358,0 0.84552,0 0,-0.84552 c -5e-5,-0.22949 -0.0322,-0.98422 -0.0767,-2.53655 -0.0295,-1.54346 5e-5,-3.48934 0,-5.7649 -2e-5,-1.03941 -0.0148,-2.09216 0,-3.22834 0.0148,-1.15691 2e-5,-2.26603 0,-3.38207 -2e-5,-0.25684 0.01,-0.49521 0,-0.69179 1.16651,-0.6205 2.31653,-1.15679 3.22834,-1.46044 1.0696,-0.35146 1.92729,-0.53805 2.61342,-0.53805 1.24915,0 2.02442,0.27091 2.45969,0.69179 0.40336,0.38147 0.72718,1.30958 0.76865,2.84401 0.0148,0.6881 0.077,1.7403 0.0767,3.15148 0.0148,1.39916 -9e-5,2.38653 0,2.99774 -7e-5,1.55989 -0.0472,3.22928 -0.0767,4.99624 -0.007,0.88453 0.007,1.59853 0,2.07536 -0.007,0.47684 -0.007,0.84287 0,0.76866 l -0.0767,0.92238 0.92238,0 2.69029,0 0.84551,0 0.84552,0 0,-0.84552 c 0,-0.0755 0.005,-0.64094 0,-0.84552 -0.01,-0.40971 -0.0472,-0.62835 -0.0767,-1.69103 -0.0295,-1.58493 -0.0767,-3.53868 -0.0767,-5.84176 -3e-5,-1.10836 0.062,-2.1678 0.0767,-3.15148 0.03,-1.01457 0,-2.2282 0,-3.68953 -5e-5,-2.05773 -0.66274,-3.80575 -1.9985,-5.07311 -1.32725,-1.29143 -3.17636,-1.9216 -5.38057,-1.92163 -1.15384,3e-5 -2.4208,0.23958 -3.92012,0.76865 -1.32452,0.47222 -2.77918,1.2345 -4.30446,2.07537 -0.49941,-0.71019 -1.0161,-1.44541 -1.84476,-1.92163 -1.12758,-0.65787 -2.5082,-0.92236 -4.07386,-0.92239 z m 36.89533,0 c -1.49979,3e-5 -2.97851,0.2231 -4.38132,0.76865 -1.39691,0.54955 -2.5689,1.35197 -3.5358,2.38283 -1.07417,1.15433 -1.91315,2.47523 -2.45969,3.84326 -0.55013,1.37701 -0.84549,2.8773 -0.84552,4.53505 0,1.7131 0.42022,3.3347 1.15298,4.76565 0.72494,1.38497 1.55743,2.54226 2.61342,3.45893 1.23221,1.09486 2.77168,1.93074 4.61192,2.53656 l 0.0767,0 c 1.8728,0.59687 4.01367,0.84549 6.45668,0.84552 0.91852,0 1.69104,0.0426 2.38282,0 0.67174,-0.0275 0.99283,-0.0494 1.22985,-0.0768 l 0.69178,-0.0767 0.0768,-0.69179 0.38432,-2.69028 0.15373,-1.07611 -1.07611,0.0767 c -0.13086,0.01 -0.59596,0.0357 -1.30671,0.0767 -0.6773,0.0401 -1.39691,0.0767 -2.22909,0.0767 -1.49785,0 -2.75234,-0.15619 -3.7664,-0.38432 -1.02539,-0.24351 -1.91169,-0.61672 -2.69028,-1.07612 -1.23902,-0.73048 -2.11757,-1.55391 -2.69029,-2.61342 -0.44058,-0.82431 -0.57488,-1.82095 -0.69179,-2.76715 l 14.14321,0 0.84552,0 0.92238,0 0,-0.92238 0,-0.84552 -0.15373,0 c -0.0799,-1.47387 -0.20022,-2.846 -0.61492,-3.99699 -0.49745,-1.39516 -1.25776,-2.63802 -2.22909,-3.61267 -0.87496,-0.87036 -1.89413,-1.49694 -3.07461,-1.92163 -1.17987,-0.42442 -2.53658,-0.6149 -3.997,-0.61492 z m 34.66623,0 c -1.49984,3e-5 -2.97858,0.2231 -4.38132,0.76865 -1.39695,0.54957 -2.56885,1.35202 -3.5358,2.38283 -1.07417,1.15435 -1.91312,2.47528 -2.45969,3.84326 -0.55013,1.37701 -0.84544,2.8773 -0.84551,4.53505 0,1.71313 0.34347,3.33475 1.07611,4.76565 0.72499,1.38495 1.63431,2.54226 2.69028,3.45893 1.23226,1.09486 2.77173,1.93074 4.61192,2.53656 1.87278,0.59687 4.09056,0.84549 6.53355,0.84552 0.91852,0 1.69093,0.0426 2.38282,0 0.67174,-0.0275 0.99273,-0.0494 1.22984,-0.0768 l 0.61493,-0.0767 0.15373,-0.69179 0.38432,-2.69028 0.15373,-1.07611 -1.07611,0.0767 c -0.13086,0.01 -0.59588,0.0357 -1.30671,0.0767 -0.6773,0.0401 -1.397,0.0767 -2.22909,0.0767 -1.49783,0 -2.82909,-0.15619 -3.84327,-0.38432 -1.02542,-0.24351 -1.91189,-0.61677 -2.69028,-1.07612 -1.23902,-0.7305 -2.04083,-1.55398 -2.61342,-2.61342 -0.44058,-0.82429 -0.57483,-1.8209 -0.69179,-2.76715 l 14.14321,0 0.84552,0 0.84552,0 0,-0.92238 0,-0.84552 -0.15373,0 c -0.0799,-1.47389 -0.20022,-2.84605 -0.61492,-3.99699 -0.49743,-1.39521 -1.18098,-2.63804 -2.15223,-3.61267 -0.87494,-0.87031 -1.97085,-1.49691 -3.15148,-1.92163 -1.17986,-0.42442 -2.45978,-0.6149 -3.92013,-0.61492 z m 35.43489,0 c -1.49984,3e-5 -2.97861,0.2231 -4.38132,0.76865 -1.39696,0.54957 -2.56887,1.35202 -3.5358,2.38283 -1.0742,1.15433 -1.91315,2.47523 -2.45969,3.84326 -0.55013,1.37701 -0.84547,2.8773 -0.84552,4.53505 0,1.71313 0.42031,3.33472 1.15298,4.76565 0.72499,1.38495 1.55747,2.54226 2.61342,3.45893 1.23225,1.09486 2.77175,1.93074 4.61191,2.53656 1.87281,0.59687 4.09054,0.84549 6.53355,0.84552 0.91852,0 1.69109,0.0426 2.38283,0 0.67174,-0.0275 0.9928,-0.0494 1.22984,-0.0768 l 0.69179,-0.0767 0.0767,-0.69179 0.38433,-2.69028 0.15373,-1.07611 -1.07612,0.0767 c -0.13085,0.01 -0.59586,0.0357 -1.30671,0.0767 -0.6773,0.0401 -1.39703,0.0767 -2.22909,0.0767 -1.49785,0 -2.75227,-0.15619 -3.7664,-0.38432 -1.02547,-0.24351 -1.91186,-0.61675 -2.69028,-1.07612 -1.23905,-0.73048 -2.11757,-1.55391 -2.69029,-2.61342 -0.44058,-0.82431 -0.57485,-1.82093 -0.69178,-2.76715 l 14.14321,0 0.84551,0 0.84552,0 0.0767,0 -0.0767,-0.92238 0,-0.84552 -0.15373,0 c -0.0799,-1.47318 -0.12348,-2.84654 -0.53806,-3.99699 -0.49742,-1.39514 -1.25764,-2.63799 -2.22909,-3.61267 -0.87493,-0.87033 -1.9709,-1.49691 -3.15147,-1.92163 -1.17989,-0.42442 -2.45982,-0.6149 -3.92013,-0.61492 z m 75.78915,0 c -1.05727,3e-5 -2.24252,0.23613 -3.68953,0.69179 -1.11026,0.34234 -2.59992,1.0447 -4.07386,1.7679 l 0,-1.07611 0,-0.84552 -0.84552,0 -3.5358,0 -0.84552,0 0,0.84552 c 0.0445,2.17793 0.0767,4.21974 0.0767,6.14922 0.0148,1.93437 -2e-5,3.63433 0,5.07311 0,3.12788 0.0295,5.4894 0,7.0716 -0.0298,1.57939 -0.077,2.34974 -0.0767,2.53655 l 0,0.84552 0.84552,0 3.5358,0 0.84552,0 0,-0.84552 c -5e-5,-0.22457 -0.0322,-1.28368 -0.0767,-3.5358 -0.0298,-2.24914 -7e-5,-4.17753 0,-5.76489 0,-1.21851 -0.0148,-2.59328 0,-4.07386 0.0123,-1.11237 -0.002,-1.47532 0,-1.84477 1.19947,-0.65369 2.36952,-1.25951 3.53581,-1.69103 1.2766,-0.47231 2.32568,-0.69179 3.07461,-0.69179 1.36783,0 2.08385,0.3447 2.45969,0.76865 0.39815,0.44919 0.72708,1.37192 0.76865,2.84402 0.0148,0.6311 0.0767,1.67716 0.0767,3.07461 0.0148,1.38529 5e-5,2.44355 0,3.15147 -2e-5,0.49132 -0.0472,1.76534 -0.0767,3.92013 -0.0148,2.1541 0.0123,3.50968 0,3.84326 l -0.0767,0.84552 0.92238,0 2.69028,0 0.84552,0 0.84552,0 0,-0.84552 c -3e-5,-0.0637 0.002,-0.67137 0,-0.84552 -0.01,-0.44367 -0.045,-0.81095 -0.0767,-2.15222 -0.0298,-1.8781 -3e-5,-3.36923 0,-4.61192 -3e-5,-0.77714 -0.0148,-1.8272 0,-3.07461 0.03,-1.27244 -3e-5,-2.72322 0,-4.45818 -3e-5,-2.09514 -0.65888,-3.87893 -1.9985,-5.14998 -1.31392,-1.27842 -3.08196,-1.9216 -5.14997,-1.92163 z m 43.27514,0 c -1.49982,3e-5 -2.97858,0.2231 -4.38132,0.76865 -1.39693,0.54957 -2.56887,1.35202 -3.5358,2.38283 -1.0742,1.15435 -1.9131,2.47528 -2.45969,3.84326 -0.55008,1.37696 -0.84559,2.87722 -0.84552,4.53505 0,1.7131 0.42017,3.33467 1.15298,4.76565 0.725,1.38497 1.63439,2.54228 2.69029,3.45893 1.23223,1.09489 2.77177,1.93074 4.61191,2.53656 1.87276,0.59687 4.0136,0.84549 6.45668,0.84552 0.91853,0 1.69099,0.0426 2.38283,0 0.67176,-0.0275 0.9928,-0.0494 1.22984,-0.0768 l 0.69179,-0.0767 0.0767,-0.69179 0.38433,-2.69028 0.15373,-1.07611 -1.07612,0.0767 c -0.13085,0.01 -0.59586,0.0357 -1.30671,0.0767 -0.67725,0.0401 -1.397,0.0767 -2.22909,0.0767 -1.49785,0 -2.75222,-0.15619 -3.7664,-0.38432 -1.02544,-0.24351 -1.91184,-0.61675 -2.69028,-1.07612 -1.23902,-0.7305 -2.11767,-1.55398 -2.69028,-2.61342 -0.44058,-0.82431 -0.57491,-1.82095 -0.69179,-2.76715 l 14.14321,0 0.84551,0 0.92239,0 0,-0.92238 0,-0.84552 -0.15373,0 c -0.0799,-1.47389 -0.20022,-2.84608 -0.61492,-3.99699 -0.49743,-1.39521 -1.25784,-2.63804 -2.2291,-3.61267 -0.87498,-0.87036 -1.8942,-1.49694 -3.07461,-1.92163 -1.17989,-0.42442 -2.53663,-0.6149 -3.99699,-0.61492 z m -258.65161,0.30746 c -0.65501,0.0276 -1.06767,0.0622 -1.30671,0.0768 l -0.69178,0.0767 -0.0768,0.69178 -0.38432,2.76715 -0.15373,0.99925 1.07611,-0.0767 c 0.80292,-0.0413 1.38045,-0.0492 1.84477,-0.0767 0.45179,-0.0261 1.03484,-0.0767 1.69103,-0.0767 1.03922,0 1.93966,0.0509 2.69029,0.15373 0.74245,0.089 1.41975,0.24228 1.99849,0.46119 0.8255,0.31024 1.3898,0.77684 1.7679,1.30671 0.23441,0.32856 0.25815,0.90364 0.38433,1.38357 -1.61965,0.14734 -3.19619,0.28808 -4.53505,0.53806 -1.6368,0.29437 -2.95286,0.67491 -3.99699,1.07611 -1.63865,0.62671 -2.93387,1.4542 -3.92013,2.53656 -0.99313,1.09296 -1.53733,2.50315 -1.53731,3.99699 0,1.40465 0.45298,2.65806 1.30671,3.68953 0.83549,0.98919 1.93536,1.75288 3.22834,2.30596 0.9719,0.41957 2.09743,0.7076 3.38208,0.92238 1.27748,0.2135 2.50059,0.38431 3.76639,0.38433 1.95868,0 3.57543,-0.0548 4.84251,-0.15373 1.23292,-0.0824 1.86629,-0.1343 2.07537,-0.15373 l 0.84551,-0.0767 0,-0.76866 c -2e-5,-0.13823 -0.0147,-1.31709 0,-3.45893 0.0123,-1.90897 -0.001,-4.54819 0,-7.45593 l 0,-0.92239 0,-0.84551 -0.15373,0 c -0.0622,-1.56456 -0.12249,-2.98958 -0.53805,-3.997 -0.47925,-1.17696 -1.20102,-2.19507 -2.15223,-2.99774 -1.02345,-0.85352 -2.28286,-1.41373 -3.7664,-1.7679 -1.45006,-0.36446 -3.11158,-0.53804 -4.91937,-0.53806 -1.15335,2e-5 -2.06907,-0.043 -2.76715,0 z m 169.10358,0 c -2.31698,3e-5 -4.31771,0.12815 -5.99549,0.38433 -1.67586,0.244 -3.24497,0.73033 -4.68878,1.38357 -2.02295,0.91385 -3.68368,2.17794 -4.91938,3.7664 -1.25476,1.61282 -1.84471,3.51832 -1.84476,5.61117 0,2.04417 0.38929,3.83804 1.30671,5.3037 0.88344,1.41154 2.04513,2.50524 3.45893,3.38207 1.42519,0.91837 3.12085,1.58291 5.07311,1.9985 1.89698,0.38996 3.80533,0.60968 5.61116,0.61492 -0.13061,0.84781 -0.26953,1.69453 -0.69178,2.30596 -0.53695,0.78816 -1.52132,1.50823 -3.15148,2.07536 -1.05631,0.35998 -2.2879,0.56002 -3.61267,0.69179 -1.34729,0.14733 -2.89658,0.28033 -4.61191,0.30746 l -0.92239,0 0.0767,0.92238 0.38432,2.69029 0.0768,0.69178 0.76865,0 c 2.62249,0 4.87704,-0.16603 6.76414,-0.53805 1.8658,-0.35368 3.49335,-0.81443 4.84251,-1.46044 1.7194,-0.85413 3.0463,-2.06506 3.997,-3.53581 1.00338,-1.52589 1.46039,-3.5405 1.46044,-5.99549 -3e-5,-1.28022 0.0148,-2.68743 0,-4.22759 -0.0148,-1.53511 0,-3.05498 0,-4.53505 -3e-5,-2.1812 -0.0148,-4.42598 0,-6.841 0.0246,-1.91554 0.0721,-2.6333 0.0767,-3.22835 0.001,-0.15569 0,-0.77699 0,-0.84551 l 0,-0.92239 -0.92238,0 c -0.30737,3e-5 -0.56305,0 -0.84552,0 -0.15398,0 -0.3145,0 -0.46119,0 -0.40076,3e-5 -0.81431,3e-5 -1.22985,0 z m 12.75963,0 c -0.65506,0.0276 -1.06772,0.0622 -1.30671,0.0768 l -0.69178,0.0767 -0.0768,0.69178 -0.38432,2.76715 -0.15373,0.99925 1.07611,-0.0767 c 0.80289,-0.0413 1.3804,-0.0492 1.84477,-0.0767 0.45174,-0.0261 1.03479,-0.0767 1.69103,-0.0767 1.03927,0 1.93971,0.0509 2.69029,0.15373 0.74243,0.089 1.41973,0.24228 1.99849,0.46119 0.82555,0.31024 1.38997,0.77699 1.76791,1.30671 0.23809,0.33378 0.33486,0.89333 0.46119,1.38357 -1.62573,0.14758 -3.26888,0.28729 -4.61192,0.53806 -1.63677,0.29437 -2.95288,0.67489 -3.99699,1.07611 -1.63865,0.62671 -2.93387,1.45417 -3.92013,2.53656 -0.9932,1.09298 -1.53726,2.42633 -1.53731,3.92012 0,1.40466 0.45293,2.73493 1.30671,3.7664 0.83551,0.98922 1.93548,1.75288 3.22834,2.30596 0.97193,0.41957 2.09745,0.7076 3.38208,0.92238 1.27748,0.2135 2.50064,0.38431 3.76639,0.38433 1.95873,0 3.57541,-0.0548 4.84252,-0.15373 1.23291,-0.0824 1.86633,-0.1343 2.07536,-0.15373 l 0.84552,-0.0767 0,-0.76866 c -3e-5,-0.13798 -0.0148,-1.31706 0,-3.45893 0.0123,-1.90899 -0.002,-4.54821 0,-7.45593 l 0,-0.92239 0,-0.84551 -0.15373,0 c -0.0622,-1.56456 -0.1225,-2.98958 -0.53806,-3.997 -0.47927,-1.17698 -1.20114,-2.1951 -2.15223,-2.99774 -1.02343,-0.85352 -2.28276,-1.41373 -3.7664,-1.7679 -1.45003,-0.36446 -3.11163,-0.53804 -4.91937,-0.53806 -1.1533,2e-5 -2.06917,-0.043 -2.76715,0 z m -191.31763,0.15373 c -2.0505,3e-5 -3.98391,0.17464 -5.91863,0.61493 -1.92741,0.42786 -3.64268,1.06895 -5.07311,1.92163 -1.58807,0.94016 -2.85129,2.19488 -3.84326,3.68953 -1.00899,1.50538 -1.53733,3.18827 -1.53731,4.99624 0,1.99737 0.51339,3.90213 1.61418,5.5343 1.0967,1.62613 2.62662,2.88039 4.53505,3.84326 1.39673,0.69678 2.96358,1.25799 4.68878,1.61417 1.72431,0.34178 3.57001,0.46117 5.5343,0.4612 0.17808,0 0.43947,-3e-5 0.69178,0 0.2672,0 0.4194,-3e-5 0.53806,0 l 0.84552,0 0,-0.76866 0.23047,-1.99849 0.0767,0 0,-0.76866 0.0767,-0.84551 -0.0767,0 0,-0.0768 -0.76865,0 -0.0767,0 -0.76865,-0.0767 0,0.0767 c -0.22802,3e-5 -0.42501,3e-5 -0.61493,0 -1.41407,3e-5 -2.81619,-0.10921 -4.07386,-0.30746 -1.24211,-0.19579 -2.26916,-0.49142 -3.22834,-0.92238 l -0.0767,0 c -1.21703,-0.53789 -2.11818,-1.2647 -2.84401,-2.22909 -0.68377,-0.93707 -1.07614,-2.07256 -1.07612,-3.53581 0,-1.162 0.38374,-2.25012 1.15298,-3.3052 0.76096,-1.04375 1.74296,-1.80822 3.07461,-2.30596 l 0.0767,0 c 1.04129,-0.40344 2.05493,-0.67646 3.15148,-0.84552 1.10917,-0.18177 2.5365,-0.30743 4.15072,-0.30746 0.10405,3e-5 0.18866,3e-5 0.30747,0 0.13356,3e-5 0.28033,3e-5 0.38432,0 l 0.92238,0 -0.0767,-0.92238 -0.23047,-2.76715 0,-0.76865 -0.84552,0 c -0.1038,2e-5 -0.20637,2e-5 -0.38432,0 -0.16333,2e-5 -0.37493,2e-5 -0.53806,0 z m 252.50238,0 c -2.05052,3e-5 -3.98388,0.17464 -5.91862,0.61493 -1.92744,0.42786 -3.64268,1.06895 -5.07311,1.92163 -1.5881,0.94016 -2.92818,2.19488 -3.92013,3.68953 -1.00901,1.50538 -1.46049,3.18825 -1.46044,4.99624 0,1.99737 0.51336,3.9021 1.61417,5.5343 1.09668,1.62613 2.6267,2.88039 4.53505,3.84326 1.39676,0.69678 2.96366,1.25799 4.68878,1.61417 1.72437,0.34178 3.57,0.46117 5.5343,0.4612 0.17808,0 0.43945,-3e-5 0.69179,0 0.26715,0 0.41938,-3e-5 0.53806,0 l 0.76865,0 0.0767,-0.76866 0.23047,-1.99849 0.0767,0 0,-0.76866 0.0767,-0.84551 -0.0767,0 0,-0.0768 -0.76866,0 -0.0767,0 -0.76865,-0.0767 0,0.0767 c -0.23416,3e-5 -0.4976,3e-5 -0.69179,0 -1.41402,3e-5 -2.73933,-0.10921 -3.99699,-0.30746 -1.24212,-0.19579 -2.34595,-0.49142 -3.30521,-0.92238 -1.217,-0.53789 -2.11818,-1.2647 -2.84401,-2.22909 -0.68377,-0.93705 -1.07612,-2.07254 -1.07612,-3.53581 0,-1.16203 0.38374,-2.25014 1.15298,-3.3052 0.76103,-1.04379 1.74294,-1.80824 3.07461,-2.30596 1.04121,-0.40344 2.13179,-0.67646 3.22834,-0.84552 1.10913,-0.18177 2.53653,-0.30743 4.15073,-0.30746 0.10404,3e-5 0.18866,3e-5 0.30746,0 0.13356,3e-5 0.28035,3e-5 0.38433,0 l 0.84551,0 0,-0.92238 -0.23047,-2.76715 0,-0.76865 -0.84552,0 c -0.1038,2e-5 -0.20612,2e-5 -0.38432,0 -0.16333,2e-5 -0.37493,2e-5 -0.53806,0 z m -406.84783,3.68954 c 1.49423,2e-5 2.61942,0.41903 3.45894,1.22984 0.6145,0.57667 0.86344,1.52358 1.15297,2.45969 l -9.60815,0 c 0.39716,-0.91621 0.78306,-1.86654 1.46044,-2.45969 0.95416,-0.84729 2.04387,-1.22984 3.5358,-1.22984 z m 23.29017,0 c 1.49419,2e-5 2.54261,0.41905 3.38207,1.22984 0.61451,0.57667 0.86343,1.52356 1.15298,2.45969 l -9.60815,0 c 0.39716,-0.91621 0.78309,-1.86654 1.46044,-2.45969 0.95421,-0.84731 2.12074,-1.22984 3.61266,-1.22984 z m 209.84217,0 c 1.49424,2e-5 2.5426,0.41905 3.38207,1.22984 0.61453,0.57667 0.86343,1.52358 1.15298,2.45969 l -9.60816,0 c 0.39719,-0.91621 0.78312,-1.86654 1.46044,-2.45969 0.95416,-0.84729 2.12077,-1.22984 3.61267,-1.22984 z m 34.58937,0 c 1.49423,2e-5 2.61934,0.419 3.45893,1.22984 0.61451,0.57667 0.86345,1.52358 1.15298,2.45969 l -9.60815,0 c 0.39716,-0.91621 0.78306,-1.86654 1.46044,-2.45969 0.95418,-0.84729 2.04395,-1.22984 3.5358,-1.22984 z m 35.51175,0 c 1.49426,2e-5 2.54246,0.41898 3.38207,1.22984 0.6145,0.57667 0.86345,1.52358 1.15298,2.45969 l -9.60816,0 c 0.39717,-0.91621 0.78307,-1.86656 1.46044,-2.45969 0.95416,-0.84729 2.12082,-1.22984 3.61267,-1.22984 z m 119.06429,0 c 1.49426,2e-5 2.54251,0.419 3.38207,1.22984 0.61451,0.57667 0.8634,1.52356 1.15298,2.45969 l -9.60816,0 c 0.39717,-0.91621 0.78307,-1.86654 1.46044,-2.45969 0.95414,-0.84729 2.12085,-1.22984 3.61267,-1.22984 z m -532.90686,0.15373 c 0.76486,2e-5 1.53762,0.13085 2.22909,0.38432 0.70352,0.24105 1.27992,0.55948 1.7679,0.99925 l 0,0.0767 c 0.84429,0.7444 1.44516,1.59386 1.84477,2.69029 0.42491,1.12853 0.61492,2.27054 0.61492,3.45893 -3e-5,1.13237 -0.20908,2.20263 -0.61492,3.22835 -0.40229,1.01705 -0.93751,1.90414 -1.69104,2.61341 -0.52362,0.4961 -1.13033,0.88864 -1.84477,1.15298 -0.6982,0.26312 -1.46358,0.38433 -2.30595,0.38433 -0.76231,0 -1.48516,-0.0898 -2.15223,-0.30746 -0.66702,-0.22998 -1.19519,-0.5876 -1.69104,-0.99925 -0.92427,-0.76821 -1.59215,-1.65955 -1.99849,-2.69028 -0.41837,-1.07351 -0.61493,-2.22954 -0.61493,-3.53581 -2e-5,-1.13229 0.20686,-2.24813 0.61493,-3.3052 0.42112,-1.05553 0.9286,-1.8136 1.61417,-2.45969 l 0,-0.0767 c 0.59935,-0.57906 1.27958,-0.97362 1.92163,-1.22985 0.63292,-0.25251 1.36633,-0.3843 2.30596,-0.38432 z m 183.32365,0 c 0.76486,2e-5 1.46073,0.13085 2.15222,0.38432 0.70352,0.24105 1.2799,0.55948 1.76791,0.99925 l 0.0767,0.0767 c 0.84426,0.7444 1.44521,1.59388 1.84476,2.69029 0.42494,1.1285 0.61488,2.27051 0.61493,3.45893 -3e-5,1.13235 -0.20932,2.20258 -0.61493,3.22835 -0.40225,1.01703 -0.93753,1.90411 -1.69103,2.61341 -0.52362,0.4961 -1.1303,0.88864 -1.84477,1.15298 -0.69818,0.26312 -1.46354,0.38433 -2.30596,0.38433 -0.76225,0 -1.48511,-0.0898 -2.15222,-0.30746 -0.66702,-0.22998 -1.27198,-0.58757 -1.7679,-0.99925 -0.92426,-0.76818 -1.51522,-1.6595 -1.92164,-2.69028 -0.41834,-1.07353 -0.69176,-2.22954 -0.69178,-3.53581 0,-1.13231 0.20686,-2.24813 0.61492,-3.3052 0.42112,-1.0555 1.00549,-1.81358 1.69103,-2.45969 l 0,-0.0767 c 0.59936,-0.57904 1.20274,-0.97362 1.84477,-1.22985 0.6329,-0.25251 1.44312,-0.3843 2.38282,-0.38432 z m 258.42101,0.38432 c 0.0197,1.28945 0.0767,2.55995 0.0767,3.7664 0.0123,1.14164 -0.002,1.99737 0,2.84402 7.6e-4,0.2517 0,0.61994 0,0.84551 l 0,0.84552 c -0.002,1.46804 0.0123,2.86716 0,3.99699 -0.01,0.86173 -0.0735,1.07703 -0.0767,1.46044 -1.25353,-0.005 -2.49538,-0.15471 -3.61267,-0.38432 -1.13997,-0.23736 -2.08227,-0.55358 -2.92088,-0.92238 -1.21813,-0.53831 -2.13447,-1.28103 -2.84401,-2.2291 -0.67243,-0.91535 -1.07619,-1.94431 -1.07612,-3.3052 0,-1.31257 0.36999,-2.43074 1.07612,-3.45894 0.69761,-1.0157 1.68919,-1.82996 3.07461,-2.38282 1.09431,-0.43379 2.12295,-0.69243 3.07461,-0.84552 0.89589,-0.14193 2.0273,-0.21793 3.22834,-0.23047 z m -279.78956,0.53806 c 0,0.33297 -2e-5,0.6697 0,0.99925 0,0.35702 0,0.67449 0,0.99925 0,0.27479 -2e-5,0.59379 0,0.84551 l 0,0.84552 c -0.001,3.3894 -0.0635,6.24719 -0.0767,7.99399 -0.01,1.34567 0.002,1.68415 0,2.15223 -1.24475,-0.0172 -2.47435,-0.0895 -3.61267,-0.30746 -1.21343,-0.24797 -2.27914,-0.60528 -3.22834,-1.07612 -1.06143,-0.52194 -1.90512,-1.23749 -2.61342,-2.15223 -0.66837,-0.86315 -0.99922,-1.89678 -0.99924,-3.15147 0,-1.43065 0.3642,-2.59502 1.07611,-3.61267 0.71847,-1.03917 1.71573,-1.80462 3.07461,-2.38282 0.85799,-0.36531 1.89362,-0.69754 3.15148,-0.92238 1.00352,-0.17735 2.1171,-0.19358 3.22834,-0.23048 z m 121.60085,6.91787 c 0.005,0.52945 0,1.09481 0,1.53731 -3e-5,0.37252 0,0.61713 0,0.92238 l 0,0.84552 0,0.84552 c -0.002,0.90184 0.01,1.79144 0,2.38282 l 0,0.0767 c 0,0.33359 0,0.32567 0,0.53806 -0.1739,0.005 -0.37077,-0.005 -0.53806,0 -0.42427,0.0123 -0.79271,2e-5 -1.07611,0 -0.95156,0 -1.83316,-0.0612 -2.69029,-0.15373 -0.83026,-0.10405 -1.56003,-0.24649 -2.22909,-0.46119 -0.84847,-0.26978 -1.49192,-0.63568 -1.92163,-1.07612 -0.38925,-0.40875 -0.53808,-0.92622 -0.53806,-1.69103 0,-0.63615 0.20981,-1.025 0.69179,-1.46044 0.57067,-0.50384 1.19233,-0.90003 1.92163,-1.15298 1.03194,-0.36908 2.33154,-0.64515 3.92013,-0.84552 1.18151,-0.15889 1.8169,-0.25135 2.45969,-0.30746 z m 181.86321,0 c 0.005,0.52945 -5e-5,1.09471 0,1.53731 -2e-5,0.37252 0,0.61713 0,0.92238 l 0,0.84552 0,0.84552 c -0.002,0.90184 0.01,1.79139 0,2.38282 l 0,0.0767 c 0,0.33359 0,0.32574 0,0.53806 -0.1739,0.005 -0.37075,-0.005 -0.53806,0 -0.42429,0.0123 -0.79266,2e-5 -1.07611,0 -0.95156,0 -1.83326,-0.0612 -2.69028,-0.15373 -0.83027,-0.10405 -1.56009,-0.24649 -2.2291,-0.46119 -0.84844,-0.26978 -1.4919,-0.63566 -1.92163,-1.07612 -0.38924,-0.40875 -0.5381,-0.92622 -0.53806,-1.69103 0,-0.63615 0.20982,-1.025 0.69179,-1.46044 0.57065,-0.50382 1.19239,-0.90003 1.92163,-1.15298 1.03197,-0.36908 2.33157,-0.64515 3.92013,-0.84552 1.18146,-0.15889 1.81688,-0.25135 2.45969,-0.30746 z"
     id="path3671"
     style="font-style:normal;font-variant:normal;font-weight:normal;font-stretch:normal;font-size:19.75634766px;line-height:100%;font-family:Skia;text-align:start;writing-mode:lr-tb;text-anchor:start;fill:#ffffff;fill-opacity:1;stroke:none"
     inkscape:connector-curvature="0" />
  <path
     d="m 798.83501,236.49772 -16.7982,0 0,-145.993427 c 0,-0.99091 -0.33028,-2.548041 -1.03808,-4.577037 -1.3684,-3.916439 -3.82206,-6.88917 -7.40822,-8.918167 -2.87835,-1.55713 -6.3701,-2.312107 -10.42809,-2.312107 -0.18866,0 -0.51904,0.09445 -1.03809,0.235885 -0.51904,0.188904 -0.84935,0.283134 -1.03811,0.283134 -0.99088,0 -2.54802,0.613422 -4.57704,1.793064 -3.39737,1.84024 -5.80388,4.577037 -7.17225,8.163189 -0.99091,2.217729 -1.50995,4.010793 -1.50995,5.332014 l 0,145.993432 -16.79823,0 0,-145.993432 c 0,-0.141678 -0.0944,-0.896532 -0.28311,-2.26493 -0.51904,-2.076198 -1.46277,-4.105195 -2.83115,-6.134192 -3.06708,-4.246751 -6.93634,-6.74759 -11.74931,-7.408188 0.51904,0 -0.6606,0 -3.53895,0 -0.18866,0 -0.51905,0 -1.03809,0 -0.51904,0 -0.84935,0 -0.99091,0 -0.84933,0 -2.40649,0.613421 -4.62421,1.793063 -4.95453,2.548041 -7.7385,6.558858 -8.4463,12.032427 -0.14168,0.188658 -0.23589,0.424665 -0.23589,0.754977 l 0,147.220275 -17.36444,0 0,-146.465298 c 0,-3.397396 0.75498,-6.983523 2.26493,-10.71123 0.70778,-1.55713 1.65151,-3.303017 2.83115,-5.379191 2.35931,-4.24675 5.99262,-7.880055 10.85279,-10.852785 4.81297,-2.972705 9.90905,-4.624238 15.19389,-4.954525 1.32122,-0.188659 3.20866,-0.283111 5.61512,-0.235885 0.14143,-0.04723 0.56625,0.04723 1.27402,0.235885 0.6606,0.141432 1.08529,0.235884 1.27402,0.235884 1.50995,0 4.38831,0.849355 8.68223,2.54804 0.6606,0.188658 1.41558,0.519044 2.26493,1.038087 2.92553,1.69871 5.99262,4.24675 9.20128,7.644146 2.73677,-2.878352 5.09608,-5.001727 7.17225,-6.370126 5.4264,-3.586127 12.5043,-5.379191 21.13933,-5.332014 0.18866,-0.04723 0.61342,0.04723 1.27402,0.235884 0.70777,0.141432 1.13246,0.235884 1.3212,0.235884 1.50995,0 4.24675,0.754977 8.16319,2.312132 9.01252,3.586103 15.05233,9.767496 18.11941,18.638436 1.50996,4.577062 2.26491,8.163165 2.26491,10.71123 l 0,146.465296 0,0 0,0 z"
     id="path2594"
     style="display:inline;fill:#bfff80;fill-rule:evenodd"
     inkscape:connector-curvature="0" />
  <polygon
     points="128.488,23.656 128.488,23.656 131.432,23.656 131.432,40.96 128.488,40.96 "
     transform="matrix(5.8982482,0,0,5.8982482,57.024177,-5.0945222)"
     id="polygon2596"
     style="display:inline;fill:#bfff80;fill-rule:evenodd" />
  <path
     d="m 915.66753,236.49772 -16.79822,0 0,-69.17465 c 0,-0.33031 -0.10036,-1.17964 -0.28311,-2.54804 -1.36838,-6.46448 -5.33202,-10.61685 -11.98523,-12.5043 -1.03809,-0.33031 -3.07301,-0.51904 -6.13419,-0.51904 -0.18866,0 -0.56622,0.0944 -1.13247,0.28311 -0.61342,0.18866 -0.89062,0.23588 -0.89062,0.23588 -0.85526,0 -2.50675,0.61343 -4.86018,1.79309 -4.62421,2.21773 -7.31381,6.13417 -8.16316,11.74929 -0.18866,0.18866 -0.28901,0.42467 -0.28901,0.75498 l 0,69.92963 -17.35854,0 0,-102.06329 17.35854,0 c -0.13578,1.56303 -0.13578,2.87835 0,4.05799 5.85105,-2.68957 12.0855,-4.05799 18.73874,-4.05799 0.18275,0 0.65469,0.10035 1.55713,0.28903 0.85523,0.13578 1.3684,0.22999 1.50995,0.22999 3.58613,0 7.98034,1.6043 13.07052,4.86014 4.29983,2.55395 7.7444,5.94544 10.28656,10.19807 3.5861,5.61515 5.37919,11.08869 5.37919,16.32635 l 0,70.15966 -0.005,0 z"
     id="path2598"
     style="display:inline;fill:#bfff80;fill-rule:evenodd"
     inkscape:connector-curvature="0" />
  <path
     d="m 966.20372,151.75169 -16.8454,0 0,52.61239 c 0.18866,0.47184 0.37749,1.274 0.51905,2.26491 1.22684,5.47359 4.53576,9.20718 9.95625,11.23027 1.17964,0.33029 1.84024,0.51904 2.029,0.51904 0.18865,0 0.23588,0.0944 0.23588,0.23589 0,0 0.0945,0 0.28311,0 0.18866,0 0.51907,0.0944 1.03811,0.28311 0.47187,0.18866 0.85526,0.23588 0.99091,0.23588 0.18866,0 0.47184,0 0.89651,0 0.42469,0 0.7078,0 0.89655,0 l 0,17.36444 c -6.98942,-0.33619 -13.21206,-2.12337 -18.63846,-5.33201 -4.10517,-2.40649 -7.50259,-5.80388 -10.19806,-10.23937 -3.58025,-5.75667 -5.37331,-11.419 -5.37331,-16.83949 l 0,-120.707658 17.35853,0 0,50.772128 16.8454,0 0,17.60037 0.005,0 0,0 z"
     id="path2600"
     style="display:inline;fill:#bfff80;fill-rule:evenodd"
     inkscape:connector-curvature="0" />
  <path
     d="m 820.96524,123.81757 c -3.49174,0 -6.65321,-2.68959 -6.65321,-6.32289 l 0,-1.55716 0,0 0,-19.157504 -1.93462,0 0,-6.511681 10.14499,0.04723 1.50995,0 c 3.53893,0 6.65321,2.642419 6.65321,6.275747 l 0,27.226292 -9.72032,0 0,0 0,0 z"
     id="path2604"
     style="display:inline;fill:#bfff80;fill-rule:evenodd"
     inkscape:connector-curvature="0" />
  <g
     id="g3524"
     style="fill:#ffffff"
     transform="matrix(2.4596884,0,0,2.4596884,-572.82742,-810.30311)">
    <polygon
       points="64.168,23.48 64.168,23.48 66.376,23.48 66.376,40.96 64.168,40.96 "
       transform="matrix(2.3979656,0,0,2.3979656,256.06967,327.36203)"
       id="polygon2586"
       style="display:inline;fill:#ffffff;fill-rule:evenodd" />
    <path
       d="m 441.94078,425.5827 -5.29471,0 0,-31.7107 c 0,-1.43877 -0.51796,-2.68572 -1.55389,-3.72164 -1.03591,-1.03592 -2.28286,-1.55148 -3.72163,-1.55148 -1.45797,0 -2.70491,0.51795 -3.74083,1.55148 -1.03592,1.03592 -1.55389,2.28287 -1.55389,3.72164 l 0,31.7107 -5.27552,0 0,-31.7107 c 0,-2.89674 1.01674,-5.39063 3.08858,-7.46006 2.07184,-2.07185 4.56573,-3.11017 7.48166,-3.11017 2.89674,0 5.39062,1.03832 7.46246,3.11017 2.07184,2.06943 3.10777,4.56332 3.10777,7.46006 l 0,31.7107 0,0 z"
       id="path2588"
       style="display:inline;fill:#ffffff;fill-rule:evenodd"
       inkscape:connector-curvature="0" />
    <path
       d="m 467.03309,415.01007 c 0,2.91592 -1.03592,5.39063 -3.08858,7.46247 -2.07184,2.06945 -4.56573,3.10776 -7.48165,3.10776 -2.89674,0 -5.39063,-1.03831 -7.46247,-3.10776 -2.07184,-2.07184 -3.10776,-4.54655 -3.10776,-7.46247 l 0,-31.7083 5.2947,0 0,31.7107 c 0,1.45796 0.51796,2.68572 1.55388,3.72164 1.03592,1.03832 2.28287,1.55389 3.72165,1.55389 1.45796,0 2.7049,-0.51797 3.74082,-1.55389 1.03592,-1.03592 1.55388,-2.26128 1.55388,-3.72164 l 0,-31.7107 5.27553,0 0,31.7083 0,0 z"
       id="path2590"
       style="display:inline;fill:#ffffff;fill-rule:evenodd"
       inkscape:connector-curvature="0" />
    <polygon
       points="98.448,23.328 95.248,32.144 98.448,40.96 98.448,40.96 96.024,40.96 94.04,35.488 92.056,40.96 89.624,40.96 92.824,32.144 89.624,23.328 92.056,23.328 94.04,28.8 96.024,23.328 "
       transform="matrix(2.3979656,0,0,2.3979656,256.06967,327.36203)"
       id="polygon2592"
       style="display:inline;fill:#ffffff;fill-rule:evenodd" />
    <path
       d="m 412.71809,380.13646 c -1.41959,0 -2.68572,-1.09348 -2.68572,-2.57062 l 0,-0.63306 0,0 0,-7.7886 -0.80572,0 0,-2.64735 2.6916,0.0192 0.61388,0 c 1.41959,0 2.68571,1.07429 2.68571,2.55144 l 0,11.06901 -2.49975,0 0,0 0,0 z"
       id="path2602"
       style="display:inline;fill:#ffffff;fill-rule:evenodd"
       inkscape:connector-curvature="0" />
    <path
       d="m 388.46926,352.8768 0,62 c 0,2.91592 1.02191,5.39691 3.09375,7.46875 1.94604,1.94379 4.27802,2.97534 6.96875,3.09375 l 0,0.0312 0.53125,0 5.375,0 0,-5.3125 -5.375,0 c -1.72641,0 -2.71408,-0.49039 -3.75,-1.46875 -1.03591,-0.95679 -1.5625,-2.1067 -1.5625,-3.46875 l 0,-62.34375 -5.28125,0 z"
       id="polygon3803"
       style="display:inline;fill:#ffffff;fill-rule:evenodd"
       inkscape:connector-curvature="0" />
  </g>
  <path
     d="m 331.79042,510.93347 c -21.29012,0 -39.7658,-16.13992 -39.7658,-37.41096 l -0.0191,-21.99227 0,-6.58604 -13.49776,0 0,-36.6513 56.92036,0.26806 17.80557,0.0383 c 21.30926,0 39.76579,16.12071 39.76579,37.41086 l 0,64.92334 -61.20904,0 0,0 0,0 z"
     transform="matrix(2.5652816,0,0,2.5652816,-688.07167,-1031.7156)"
     id="path3543"
     style="display:inline;overflow:visible;visibility:visible;opacity:0.26000001;fill:#000000;fill-opacity:1;fill-rule:evenodd;stroke:none;stroke-width:1;marker:none;filter:url(#filter3573);enable-background:accumulate"
     inkscape:connector-curvature="0" />
  <path
     d="m 299.93164,235.71623 c 0,-36.20721 0,-121.61981 0,-121.61981 0,-40.631742 -35.63252,-73.568789 -79.59741,-73.568789 l -45.6313,0 0,-0.09814 -123.415312,-0.539262 0,44.375066 c 0,0 10.076999,0 18.945012,0 13.224047,0 15.56021,9.128789 15.56021,21.764087 l 0.09814,78.45009 c 0,40.63176 35.632668,73.56876 79.548488,73.56876 l 108.42806,0 c 13.90056,0 26.06418,-8.8031 26.06418,-22.3321 z"
     id="path2576"
     style="display:inline;fill:url(#linearGradient3538);fill-opacity:1;fill-rule:evenodd"
     inkscape:connector-curvature="0" />
  <path
     d="m 142.9375,500.53125 c -10.75182,-7.40935 -18.36682,-15.92034 -24.78125,-27.1875 -12.64444,-23.35809 -9.68791,-34.95326 -41,-37.6875 -9.036289,0 -15.051217,-2 -24.5625,-2 l 0,3.3125 c 10e-7,10e-6 3.758681,1.90749 7.0625,1.90749 4.926697,1e-5 5.78125,3.41765 5.78125,8.125 l 0.03125,29.15501 c -3e-6,15.13758 13.295158,27.40625 29.65625,27.40625 l 40.375,0 c 2.96358,0 5.62572,-1.16787 7.4375,-3.03125 z"
     transform="matrix(2.5789823,0,0,2.5789823,-79.463121,-1044.8703)"
     id="path3419"
     style="display:inline;opacity:0.17514122;fill:url(#linearGradient4136);fill-opacity:1;fill-rule:nonzero;filter:url(#filter3291)"
     inkscape:connector-curvature="0" />
  <path
     d="m 105.51844,438.54009 c -3.83671,0 -7.245744,1.42445 -9.984837,4.1914 -2.737725,2.76548 -4.1752,6.21796 -4.17519,10.11421 l 0,19.69466 8.932957,0 0,-19.69466 c 0,-1.49338 0.48728,-2.66108 1.55355,-3.73818 1.06977,-1.08055 2.2026,-1.56971 3.67352,-1.56971 1.50175,0 2.61758,0.4867 3.68969,1.56971 1.06628,1.0771 1.55356,2.2448 1.55356,3.73818 l 0,19.69466 8.93297,0 0,-19.69466 c 0,-1.49338 0.48728,-2.66108 1.55356,-3.73818 1.07211,-1.08301 2.18794,-1.56971 3.68971,-1.56971 1.47093,0 2.60373,0.48916 3.6735,1.56971 1.06627,1.0771 1.55356,2.2448 1.55356,3.73818 l 0.0486,23.01222 c 0,4.90894 -4.67486,9.04618 -10.68071,9.04618 l -28.805549,-0.11326 c -4.634707,0 -8.593128,-4.51117 -8.593128,-10.30852 l 0,-43.33528 -8.447462,0 0,45.00209 c 0,4.77471 1.747181,8.96178 5.146164,12.3476 2.905193,2.8676 6.399074,4.56445 10.324689,4.98427 l 0,0.16191 32.074486,0 c 4.92872,0 9.25884,-1.83265 12.75212,-5.38904 l 0.0162,0 c 2.97102,-3.05245 4.70787,-6.70998 5.12997,-10.82624 l -0.0324,-24.58193 c 0,-3.89625 -1.43744,-7.34873 -4.17521,-10.11421 -2.73906,-2.76695 -6.14812,-4.1914 -9.98482,-4.1914 -3.76604,0 -7.06133,1.40042 -9.72593,3.96479 -2.65681,-2.56014 -5.92908,-3.96479 -9.69356,-3.96479 z"
     transform="matrix(2.5789823,0,0,2.5789823,-79.463121,-1044.8703)"
     id="path2620"
     style="display:inline;overflow:visible;visibility:visible;fill:#000000;fill-opacity:0.08040203;fill-rule:evenodd;stroke:none;stroke-width:4.7667098;marker:none;filter:url(#filter3546);enable-background:accumulate"
     inkscape:connector-curvature="0" />
  <path
     d="m 190.82729,86.721587 c -9.89481,0 -18.68665,3.673619 -25.75072,10.809544 -7.06056,7.132109 -10.76778,16.036009 -10.76776,26.084359 l 0,50.79219 23.03796,0 0,-50.79219 c 0,-3.85138 1.25668,-6.86288 4.00656,-9.6407 2.75894,-2.78671 5.68048,-4.04826 9.47396,-4.04826 3.87298,0 6.75069,1.25521 9.51565,4.04826 2.74991,2.77782 4.00661,5.78932 4.00661,9.6407 l 0,50.79219 23.03793,0 0,-50.79219 c 0,-3.85138 1.25671,-6.86288 4.00664,-9.6407 2.76494,-2.79305 5.64265,-4.04826 9.5157,-4.04826 3.7935,0 6.71497,1.26155 9.47386,4.04826 2.7499,2.77782 4.00661,5.78932 4.00661,9.6407 l 0.1252,59.34812 c 0,12.66007 -12.05639,23.32992 -27.54537,23.32992 l -74.28898,-0.29208 c -11.95283,0 -22.16152,-11.63423 -22.16152,-26.5855 l 0,-111.760908 -21.78586,0 0,116.059588 c 0,12.31389 4.50596,23.11226 13.27187,31.84426 7.49243,7.39547 16.5031,12.18937 26.62716,13.27208 l 82.71956,-2e-4 c 12.71108,0 23.87836,-4.72636 32.88749,-13.89822 l 0.0418,0 c 7.66218,-7.87223 12.14152,-17.30492 13.2301,-27.92069 l -0.0834,-63.39637 c 0,-10.04835 -3.7071,-18.95225 -10.76775,-26.084359 -7.06401,-7.135925 -15.85592,-10.809544 -25.75068,-10.809544 -9.71255,0 -18.21104,3.611659 -25.08302,10.225122 -6.85188,-6.602566 -15.29097,-10.225122 -24.99951,-10.225122 z"
     id="path4130"
     style="display:inline;overflow:visible;visibility:visible;fill:#ffffff;fill-opacity:1;fill-rule:evenodd;stroke:none;stroke-width:1;marker:none;enable-background:accumulate"
     inkscape:connector-curvature="0" />
  <path
     d="m 177.27943,206.07866 0,22.75211 54.11314,0 c 12.71103,0 23.81234,-4.74075 32.82144,-13.91261 l 0.077,0 c 7.6622,-7.87226 12.13224,-17.28632 13.22083,-27.90209 l 0,-12.91336 -22.98272,0 0,8.8395 c 0,12.66014 -12.02881,23.29018 -27.51779,23.29018 l -49.7318,-0.15373 z"
     id="path4132"
     style="display:inline;overflow:visible;visibility:visible;opacity:0.3;fill:#52a800;fill-opacity:1;fill-rule:evenodd;stroke:none;stroke-width:1;marker:none;enable-background:accumulate"
     inkscape:connector-curvature="0" />
  <path
     d="m 164.71846,274.89014 c -52.36706,0 -97.811452,-39.69918 -97.811452,-92.01931 l -0.04698,-63.52792 0,-16.19958 -33.200259,0 0,-80.717014 140.006321,0.659344 43.79618,0.09421 c 52.41412,0 97.81143,39.651923 97.81143,92.019033 l 0,159.69121 -150.55517,0 0,0 0,0 z m 129.22209,-42.83713 c 0,-34.7884 0,-116.85409 0,-116.85409 0,-39.039554 -34.23623,-70.685955 -76.47835,-70.685955 l -43.84323,0 0,-0.09421 -118.579196,-0.518133 0,37.909628 c 0,0 4.762719,0 13.283228,0 9.018201,0 19.869854,8.474782 19.869854,20.911236 l 0.09421,80.10261 c 0,39.03958 34.236408,70.68593 76.431378,70.68593 l 104.17924,0 c 13.35583,0 25.04285,-8.45815 25.04285,-21.45702 z"
     id="path6141"
     style="display:inline;overflow:visible;visibility:visible;fill:#ffffff;fill-opacity:1;fill-rule:evenodd;stroke:none;stroke-width:1;marker:none;enable-background:accumulate"
     inkscape:connector-curvature="0" />
  <text
     sodipodi:linespacing="100%"
     style="font-style:normal;font-variant:normal;font-weight:bold;font-stretch:normal;font-size:19.75634766px;line-height:100%;font-family:Skia;text-align:start;writing-mode:lr-tb;text-anchor:start;fill:#ffffff;fill-opacity:1;stroke:none"
     xml:space="preserve"
     id="text2311"
     transform="scale(1.1483401,0.87082218)"
     y="1009.5441"
     x="321.44916"><tspan
       id="tspan2313"
       y="1009.5441"
       x="321.44916">from freedom came elegance</tspan></text>
</svg>
