<?xml version="1.0" encoding="UTF-8" standalone="no"?>
<!-- Created with Inkscape (http://www.inkscape.org/) -->

<svg
   xmlns:dc="http://purl.org/dc/elements/1.1/"
   xmlns:cc="http://creativecommons.org/ns#"
   xmlns:rdf="http://www.w3.org/1999/02/22-rdf-syntax-ns#"
   xmlns:svg="http://www.w3.org/2000/svg"
   xmlns="http://www.w3.org/2000/svg"
   version="1.1"
   width="510.00516"
   height="386.08646"
   viewBox="0 0 510.00516 386.08646"
   id="Layer_1"
   xml:space="preserve"><metadata
     id="metadata3055"><rdf:RDF><cc:Work
         rdf:about=""><dc:format>image/svg+xml</dc:format><dc:type
           rdf:resource="http://purl.org/dc/dcmitype/StillImage" /><dc:title></dc:title></cc:Work></rdf:RDF></metadata><defs
     id="defs3053" /><g
     transform="translate(205.00259,155.32073)"
     id="g2987"><g
       transform="matrix(5.0909464,0,0,5.0909464,-204.54732,-154.32073)"
       id="g3041"><path
         d="m 19.198,44.002 v -8.201 h -8.575 c -3.319,0 -6.021,-2.874 -6.021,-6.406 V 10.903 c 0,-3.533 2.701,-6.408 6.021,-6.408 h 38.345 c 3.319,0 6.019,2.875 6.019,6.408 v 18.492 c 0,3.532 -2.7,6.406 -6.019,6.406 v 4.496 c 5.797,0 10.514,-4.891 10.514,-10.902 V 10.903 C 59.482,4.892 54.766,0 48.968,0 H 10.623 C 4.824,0 0.107,4.892 0.107,10.903 v 18.492 c 0,6.011 4.717,10.902 10.516,10.902 h 4.08 v 7.968 c 0,1.223 0.789,2.332 1.963,2.764 0.334,0.123 0.677,0.184 1.014,0.184 0.821,0 1.609,-0.354 2.165,-1.01 l 8.369,-9.905 h 8.353 V 35.802 H 26.128 l -6.93,8.2 z"
         id="path3043"
         style="fill:#006699;fill-opacity:1" /><path
         d="m 89.377,24.233 h -25.96 v 4.496 h 25.96 c 3.319,0 6.021,2.875 6.021,6.408 v 18.489 c 0,3.533 -2.701,6.408 -6.021,6.408 h -8.574 v 8.205 L 73.872,60.036 H 51.031 c -3.318,0 -6.019,-2.875 -6.019,-6.408 V 35.137 c 0,-3.533 2.701,-6.408 6.019,-6.408 v -4.496 c -5.797,0 -10.515,4.892 -10.515,10.903 v 18.491 c 0,6.014 4.717,10.904 10.515,10.904 h 20.754 l 8.372,9.91 c 0.555,0.652 1.342,1.004 2.161,1.004 0.337,0 0.68,-0.059 1.014,-0.182 1.176,-0.432 1.967,-1.543 1.967,-2.768 V 64.53 h 4.078 c 5.799,0 10.516,-4.891 10.516,-10.904 V 35.137 c 0,-6.012 -4.717,-10.904 -10.516,-10.904 z"
         id="path3045"
         style="fill:#006699;fill-opacity:1" /><path
         d="m 31.926057,25.021427 1.364106,4.177574 4.376505,0 -7.161554,-20.7173542 -4.717532,0 -7.360487,20.7173542 4.348087,0 1.392524,-4.177574 7.758351,0 m -1.165173,-3.552358 -5.399585,0 2.699792,-8.099377 2.699793,8.099377"
         id="path3113"
         style="font-size:28.41886711px;font-style:normal;font-variant:normal;font-weight:bold;font-stretch:normal;text-align:start;line-height:125%;letter-spacing:0px;word-spacing:0px;writing-mode:lr-tb;text-anchor:start;fill:#339966;fill-opacity:1;stroke:none;font-family:Nimbus Sans L;-inkscape-font-specification:Nimbus Sans L Bold" /><path
         d="m 74.882358,52.840053 1.364106,4.177574 4.376505,0 -7.161554,-20.717354 -4.717532,0 -7.360487,20.717354 4.348087,0 1.392525,-4.177574 7.75835,0 m -1.165173,-3.552358 -5.399585,0 2.699792,-8.099377 2.699793,8.099377 M 71.017392,30.048122 c -1.44936,0 -2.586116,1.136756 -2.586116,2.557698 0,1.420942 1.136756,2.557698 2.557698,2.557698 1.392523,0 2.557698,-1.136756 2.557698,-2.529279 0,-1.449361 -1.108338,-2.586117 -2.52928,-2.586117 m 0,1.364106 c 0.653634,0 1.165174,0.539959 1.165174,1.193592 0,0.653634 -0.539959,1.193593 -1.165174,1.193593 -0.682052,0 -1.222011,-0.539959 -1.222011,-1.193593 0,-0.653633 0.539959,-1.193592 1.222011,-1.193592"
         id="path3115"
         style="font-size:28.41886711px;font-style:normal;font-variant:normal;font-weight:bold;font-stretch:normal;text-align:start;line-height:125%;letter-spacing:0px;word-spacing:0px;writing-mode:lr-tb;text-anchor:start;fill:#990000;fill-opacity:1;stroke:none;font-family:Nimbus Sans L;-inkscape-font-specification:Nimbus Sans L Bold" /></g></g></svg>